<svg xmlns="http://www.w3.org/2000/svg" xmlns:svg="http://www.w3.org/2000/svg" id="svg2985" width="16" height="16" version="1.1"><metadata id="metadata2990"/><g id="layer1"><path style="fill:ButtonText;fill-opacity:1;stroke:none" id="rect8396-1-6" d="m 13.316755,2.68355 c -0.45235,-0.4522 -1.04234,-0.7071 -1.63519,-0.7071 -0.59284,0 -1.20491,0.2327 -1.65728,0.685 -0.29888,0.2989 -0.45105,0.6575 -0.55243,1.0385 l -0.66291,-0.5745 c -0.4537,-0.4538 -1.11434,-0.4771 -1.54679,-0.044 l -0.13259,0.088 c -0.43244,0.4325 -0.40963,1.1373 0.0442,1.591 l 0.83969,0.7955 c 0,0 -3.31123,3.3111 -4.90556,4.9055 -0.61048,0.6104 -1.03796,1.6346 -0.83969,2.4749 l -0.11048,0.1105 c -0.21031,0.2103 -0.21029,0.5851 0,0.7955 0.21033,0.2102 0.54095,0.2102 0.7513,0 l 0.0884,-0.088 c 0.0246,0.011 0.0641,-0.01 0.0884,0 0.84027,0.1984 1.86435,-0.2292 2.47487,-0.8397 1.69923,-1.6993 4.90555,-4.9055 4.90555,-4.9055 l 0.83969,0.8397 c 0.45375,0.4538 1.13643,0.5003 1.5689,0.066 l 0.0884,-0.088 c 0.43242,-0.4324 0.38749,-1.1593 -0.0663,-1.6131 l -0.61872,-0.7071 c 0.38103,-0.1011 0.76177,-0.2315 1.06066,-0.5304 0.90474,-0.9047 0.88249,-2.3879 -0.0221,-3.2924 z m -4.81717,3.3587 1.41422,1.4142 -1.581976,1.553486 -2.77846,-0.021 z"/></g></svg>