<svg xmlns="http://www.w3.org/2000/svg" xmlns:svg="http://www.w3.org/2000/svg" id="svg6403" width="16" height="16" version="1.1"><metadata id="metadata6409"/><g id="g6411"><g id="g6478" transform="translate(15,-1.99913)"><path id="rect4929-0" d="m -15,1.99998 16,0 0,16 -16,0 z" style="opacity:0;fill:#fff;fill-opacity:1;stroke:none;stroke-width:.5;stroke-linecap:round;stroke-linejoin:round;stroke-miterlimit:4;stroke-dasharray:none;stroke-opacity:1"/><g id="Page-1-4" transform="matrix(0.24436073,0,0,0.24436073,-12.29131,3.95912)" style="fill:#4d4d4d;fill-opacity:1;fill-rule:evenodd;stroke:none;stroke-width:4.09231043"><path style="fill:#4d4d4d;fill-opacity:1;stroke-width:4.09231043" id="Type-something-6" d="m 40.782432,8.9821437 c 0.634914,9.1340093 1.979715,18.3593283 0.828206,27.4838053 -0.543371,3.569729 -1.895587,7.356825 -4.205737,10.234007 -3.213152,3.214995 -8.310686,3.136524 -12.211034,1.738234 -4.657205,-1.669626 -4.267696,-7.164587 -2.915267,-9.739795 1.074382,-2.045769 5.915295,-2.516871 7.571039,-1.629868 l -0.06031,4.016897 c 0,0 -2.607625,-0.597582 -3.164407,0.752457 -1.108498,2.515784 2.28118,3.465401 4.197646,2.896919 2.18825,-0.649101 2.764562,-2.809972 2.947238,-4.915022 0.163625,-1.885517 0.306601,-6.227488 -2.27878,-6.666835 -2.74489,-1.00235 -6.274097,1.130272 -8.404071,-1.222893 -0.931338,-0.543771 -2.337065,-4.736374 -2.429506,-1.708056 -0.184469,2.08754 0.206438,4.810195 -1.1164,6.590272 C 17.519207,37.379478 15.288834,36.278755 13.19244,36.152549 10.575252,35.745177 7.8317039,35.519995 5.4357699,34.3136 3.7298372,32.723137 3.5204332,30.172255 2.7490893,28.05629 1.1169105,23.578867 1.2891146,19.647849 1.154379,14.879899 1.093881,12.739026 2.6295595,12.527266 4.1252997,12.457805 c 2.5696911,-0.114016 5.1980121,0.248116 7.7110423,-0.407232 2.464458,-0.993565 1.40385,-4.1864943 1.54797,-6.2389579 0.130646,-1.8605725 -0.356785,-5.42679378 2.162466,-5.57564333 2.806429,-0.16581743 6.162664,-0.50512617 8.286154,1.85300003 1.040023,1.1549414 0.456854,3.1251795 2.560478,3.0024447 3.512067,-0.2049097 7.055607,0.08705 10.543367,0.5304623 1.722847,0.219032 3.921376,1.3156752 3.845655,3.3602649 z M 35.629889,24.706748 c 0.255843,-1.890403 -0.991835,-3.081598 -2.313957,-4.388604 -1.533177,-1.613339 -4.288788,-0.817833 -5.123,1.127468 -1.617805,2.099886 0.03343,3.543507 2.1255,3.218906 1.967945,-0.305343 3.607009,0.09408 5.311457,0.04223 z M 9.3426,6.7769351 C 9.2010298,7.7487867 8.1138906,8.383886 6.3141109,8.3428721 l -5.1219799,0 8.1634298,-8.1664546 C 9.3767521,4.2596042 9.408723,4.5185706 9.3426,6.7769351 Z"/></g><path id="rect4986-0" d="m -15,1.99913 0,0.5 0,0.5 0.5,0 0.5,0 1,0 0,-1 -1.5,0 z m 3,1 2,0 0,-1 -2,0 z m 3,0 2,0 0,-1 -2,0 z m 3,0 2,0 0,-1 -2,0 z m 3,0 2,0 0,-1 -2,0 z m 3,-0.5 0,0.5 0,1 1,0 0,-1.5 0,-0.5 -0.5,0 -0.5,0 z m -15,3.5 1,0 0,-2 -1,0 z m 15,1 1,0 0,-2 -1,0 z m -15,2 1,0 0,-2 -1,0 z m 15,1 1,0 0,-2 -1,0 z m -15,2 1,0 0,-2 -1,0 z m 15,1 1,0 0,-2 -1,0 z m -15,2 1,0 0,-2 -1,0 z m 15,1 1,0 0,-2 -1,0 z m -15,1.5 0,0.5 0.5,0 0.5,0 0,-0.5 0,-0.5 0,-1 -1,0 z m 2,0.5 2,0 0,-1 -2,0 z m 3,0 2,0 0,-1 -2,0 z m 3,0 2,0 0,-1 -2,0 z m 3,0 2,0 0,-1 -2,0 z m 3,0 1.5,0 0.5,0 0,-0.5 0,-0.5 -0.5,0 -0.5,0 -1,0 z" style="color:#000;font-style:normal;font-variant:normal;font-weight:400;font-stretch:normal;font-size:medium;line-height:normal;font-family:sans-serif;text-indent:0;text-align:start;text-decoration:none;text-decoration-line:none;text-decoration-style:solid;text-decoration-color:#000;letter-spacing:normal;word-spacing:normal;text-transform:none;direction:ltr;block-progression:tb;writing-mode:lr-tb;baseline-shift:baseline;text-anchor:start;white-space:normal;shape-padding:0;clip-rule:nonzero;display:inline;overflow:visible;visibility:visible;opacity:1;isolation:auto;mix-blend-mode:normal;color-interpolation:sRGB;color-interpolation-filters:linearRGB;solid-color:#000;solid-opacity:1;fill:#4d4d4d;fill-opacity:1;fill-rule:nonzero;stroke:none;stroke-width:1;stroke-linecap:butt;stroke-linejoin:miter;stroke-miterlimit:4;stroke-dasharray:2,1;stroke-dashoffset:.5;stroke-opacity:1;color-rendering:auto;image-rendering:auto;shape-rendering:auto;text-rendering:auto;enable-background:accumulate"/></g></g></svg>