<svg xmlns="http://www.w3.org/2000/svg" width="16" height="16" version="1.1"><metadata/><title>Gnome Symbolic Icon Theme</title><g><path fill="ButtonText" d="m228 608c-0.51124 0-1.0145 0.2021-1.4062 0.5938l-4.9688 4.9375c-0.78347 0.7835-0.78347 2.0603 0 2.8437l4.625 4.5938h3.5l4.625-4.5938c0.78347-0.7834 0.78347-2.0602 0-2.8437l-4.9688-4.9375c-0.39174-0.3917-0.89501-0.5938-1.4062-0.5938zm-1.125 2.2813 1.4375 1.4375-4.4375 4.4375-1.4375-1.4375 4.4375-4.4375zm0.25 3.875 1.4375 1.4375-2.625 2.625-1.4375-1.4375 2.625-2.625zm0.90625 3.2812 1.4375 1.4375-1.4375 1.4375-1.4375-1.4375 1.4375-1.4375z" transform="translate(-220 -606)"/></g></svg>