<svg xmlns="http://www.w3.org/2000/svg" width="16" height="16" version="1.1"><metadata/><g><path fill="ButtonText" d="m954.19-137.91c-1.3182-0.00077-4.5121 1.2913-11.469 4.4375-9.34 4.224-10.408 4.483-15.781 3.875-4.0666-0.46008-8.9217-2.6616-12.5-5.2812-0.44102 1.0865-0.93859 2.1369-1.4375 3.1875l0.34375 0.28125c5.548 4.4292 15.847 5.7494 25.031 3.2188 9.494-2.616 16.625-6.461 16.625-8.9688 0-0.48102-0.21332-0.74965-0.8125-0.75z"/><path fill="ButtonText" d="m889.44-106.25c-0.81789 0.19211-0.60556-1.5761 0.125 0.0937s3.6728 5.5079 4.25 9.9062c0.57718 4.3983-0.7447 10.435-0.875 15.812-0.1303 5.3775-2.327 12.435 0.0937 16.438 2.4207 4.0028 2.2179-7.4964 3.0625-11.219 0.84457-3.7224 1.7689-7.9848 2-11.094 0.23107-3.109-0.24428-4.7203-0.625-7.4062s-1.1135-6.4279-1.6562-8.6875c-0.54272-2.2596-0.16875-3.9846-1.5938-4.8438-1.425-0.85918-3.9633 0.80794-4.7812 1z"/><path fill="ButtonText" d="m817.81-114.59c-4.9395-0.27416-8.7456 3.1032-12.612 5.3474-4.0842 0.28095-8.105-1.067-12.158-1.4872-5.2458-0.7622-10.669-1.7466-15.935-0.83291-3.4756 1.8895-6.7852 4.088-10.711 4.9892-3.1966 2.0014-10.07 0.74481-11.112 4.4705 3.9618 0.73083-6.6955 5.7419-0.3074 3.7173 4.0592-1.7087 5.543 1.4841 2.4703 4.083 3.9531-0.59101 8.3106-6.6214 11.101-5.9392 1.6135 1.4086 5.1789-3.8718 7.5352-4.674 9.1676-1.5984 18.584-1.0801 27.798-0.21525 4.5308 0.91233 9.2027 0.53678 13.132-2.0087 3.4602-1.2356 7.0918 1.816 10.552-0.16078 2.513-1.558 9.295-3.5915 3.4865-5.9482-3.9628 0.003-7.9953 0.84689-11.747-1.2473l-0.73277-0.10243-0.75925 0.009z"/><path fill="ButtonText" d="m838.69-107.62c-0.1881 2.0658-0.59403 5.0501-1.25 9.375-0.5783 3.8128-0.40008 4.3071 1.7188 5.125 1.2945 0.4997 3.4688 2.1307 4.8438 3.625s6.775 5.7719 12 9.5 10.625 8.0057 12 9.5 3.4796 3.0957 4.6875 3.5625c1.5304 0.5914 2.3822 2.0116 2.8125 4.6562 0.3396 2.0874 1.0475 4.8304 1.5625 6.0938 0.51499 1.2634 0.9375 4.4958 0.9375 7.1875s0.45 5.1601 1 5.5c0.55 0.33992 1-0.30504 1-1.4375 0-2.8352 1.8086-2.5888 3.1875 0.4375 1.4708 3.2281 2.6807 3.234 2.0625 0-0.39489-2.0657-0.17518-2.4219 1.25-1.875 1.4516 0.55704 1.6104 0.29062 1-1.7188-0.40118-1.3207-1.6744-3.9812-2.8438-5.9062s-2.0125-4.1013-1.8438-4.8438c0.1688-0.74244-0.83828-3.1167-2.25-5.25s-2.5625-4.7436-2.5625-5.8125c0-2.7396-6.3455-7.8417-16.125-12.969-4.5983-2.4107-10.515-5.7425-13.125-7.375-4.6836-2.9295-4.7277-2.9994-4.0938-7.0938 0.31204-2.0153 1.2169-4.1148 2.5625-6.0625-2.9638-1.1498-5.8334-2.5469-8.5312-4.2188z"/><path fill="ButtonText" d="m12.632 7.4748c-0.15419 0.041147-0.28525 0.15168-0.36686 0.28883s-0.11622 0.29901-0.11554 0.4586c0.0012 0.28986 0.12248 0.58144 0.34163 0.77116 0.07415 0.064195 0.15828 0.11643 0.24713 0.15798 0.13976 0.065351 0.2934 0.1046 0.44761 0.10001 0.15422-0.00459 0.3089-0.054837 0.42806-0.15283 0.10131-0.08331 0.17443-0.19914 0.21129-0.32502s0.03801-0.2613 0.0086-0.38913c-0.05703-0.24788-0.2235-0.45742-0.41252-0.62761-0.10834-0.097547-0.22708-0.18612-0.3617-0.24207s-0.28684-0.077498-0.4277-0.03991"/><path fill="#eeeeec" d="m12.806 7.821c-0.06903 0.017788-0.12943 0.063923-0.16895 0.12325-0.03952 0.059331-0.05871 0.13111-0.05914 0.20239-0.000782 0.12861 0.06083 0.25597 0.16153 0.33598 0.03549 0.028199 0.07531 0.050665 0.11685 0.068829 0.06657 0.029111 0.13868 0.047429 0.21132 0.045926 0.07264-0.0015 0.14584-0.02374 0.20272-0.068941 0.04516-0.035885 0.07901-0.085554 0.09694-0.14037 0.01793-0.05482 0.02002-0.11457 0.007-0.17077-0.01284-0.055562-0.04002-0.10718-0.07455-0.15256-0.03453-0.045381-0.07634-0.084801-0.1205-0.12088-0.05267-0.043035-0.10962-0.081968-0.17312-0.10634-0.0635-0.024375-0.13425-0.033487-0.20012-0.016514"/><g fill-opacity="0" stroke="ButtonText" stroke-linejoin="round"><path stroke-linecap="round" stroke-width="7.354" d="m717.08-70.482c0.64085-5.0971-0.0316-10.354-1.9348-15.126-1.8317-4.5924-4.7983-8.7273-8.5618-11.934" transform="matrix(.067988 0 0 .067988 -35.184 18.473)"/><path stroke-linecap="round" stroke-width="7.354" d="m718.52-120.19c1.9214 1.6208 4.1297 2.9007 6.4913 3.7623 3.5273 1.2868 7.3949 1.627 11.093 0.97573 3.6977-0.65128 7.2164-2.2924 10.092-4.7069" transform="matrix(.067988 0 0 .067988 -35.184 18.473)"/><path stroke-linecap="square" stroke-width="14.708" d="m612.48-116.64c-8.112 1.9235-16.319 3.448-24.58 4.5659-8.5768 1.1606-17.213 1.8831-25.863 2.1638-5.8552-1.1057-11.9-1.1989-17.787-0.27413-5.8753 0.92298-11.59 2.8596-16.816 5.6985" transform="matrix(.067988 0 0 .067988 -35.184 18.473)"/><path stroke-linecap="square" stroke-width="14.708" d="m647.25-98.031c-6.7512 3.6665-13.948 6.5113-21.382 8.4515-6.5994 1.7225-13.384 2.7326-20.199 3.0073-6.1864 0.88011-12.117 3.4909-16.944 7.4588-2.3678 1.9464-4.4729 4.212-6.2404 6.7163" transform="matrix(.067988 0 0 .067988 -35.184 18.473)"/><path stroke-linecap="square" stroke-width="14.708" d="m741.69-176.96-10.166 0.17242-6.7652-7.5666-8.179-7.9971c-6.0435-0.51856-12.242 0.96835-17.393 4.1721-5.71 3.5517-10.081 9.2022-12.085 15.621" transform="matrix(.067988 0 0 .067988 -35.184 18.473)"/><path stroke-linecap="square" stroke-width="14.708" d="m685.1-46.575-0.77325-3.0847c-0.40591-1.6193-0.84275-3.2441-1.584-4.7399s-1.7786-2.8467-3.0522-3.926c-1.2736-1.0792-2.7638-1.8819-4.3179-2.4916-1.5541-0.60966-3.1723-1.0368-4.7736-1.5086-2.0987-0.61828-4.1832-1.329-6.107-2.3709s-3.677-2.4283-5.0156-4.1589c-1.3386-1.7305-2.2355-3.7878-2.6679-5.9325-0.43235-2.1447-0.39832-4.3525-0.32698-6.5392l0.66184-20.286" transform="matrix(.067988 0 0 .067988 -35.184 18.473)"/><path stroke-linecap="square" stroke-width="14.708" d="m646.62-201.03c-0.15904-6.7699-1.1191-13.521-2.8539-20.066-1.1003-4.1519-2.5114-8.2215-4.2176-12.163-7.0062 1.3786-13.829 3.6874-20.233 6.8466-2.7901 1.3765-5.6059 2.9449-8.7083 3.1778-2.8993 0.21766-5.8714-0.824-8.0005-2.804s-3.3834-4.8688-3.3765-7.7762" transform="matrix(.067988 0 0 .067988 -35.184 18.473)"/></g><path fill="ButtonText" d="m11.834 6.6716c-0.675 0.5605-1.231 1.2629-1.621 2.048-0.3106 0.6236-0.5162 1.2954-0.6524 1.9784-0.056502 0.28331-0.10059 0.5812-0.015514 0.85728 0.072471 0.23517 0.23516 0.43564 0.43082 0.58488 0.19566 0.14925 0.42351 0.25091 0.65556 0.33282 0.55245 0.195 1.153 0.28431 1.7283 0.17337 0.35628-0.06871 0.70335-0.21758 0.96766-0.46617 0.21774-0.20479 0.37249-0.47065 0.47155-0.75268 0.17339-0.49365 0.17978-1.0366 0.07171-1.5485-0.108-0.5115-0.327-0.9949-0.592-1.4458-0.387-0.6572-0.876-1.2538-1.445-1.7616"/><path fill="ButtonText" d="m5.815 3.2403c-1.2335-0.0075-2.4879 0.3561-3.4482 1.1305-0.34 0.2742-0.6425 0.5992-0.8637 0.9758-0.2213 0.3767-0.359 0.8065-0.3655 1.2433-0.00737 0.49691 0.15524 0.98713 0.41125 1.4131 0.25601 0.42595 0.60246 0.79159 0.97843 1.1166 0.78558 0.67905 1.7069 1.1912 2.6757 1.5649 0.86357 0.33309 1.7644 0.55811 2.6439 0.84665 0.34738 0.11397 0.69552 0.23878 1.0594 0.2747 0.18192 0.01796 0.367 0.0132 0.54548-0.0263s0.35038-0.1145 0.49345-0.22828c0.21683-0.17245 0.35725-0.42465 0.45106-0.68534 0.09381-0.26068 0.14605-0.53417 0.22009-0.80114 0.163-0.5885 0.434-1.1467 0.796-1.6384 0.136-0.1855 0.286-0.3618 0.411-0.5548 0.125-0.1931 0.227-0.4066 0.257-0.635 0.029-0.2283-0.017-0.4629-0.113-0.6723s-0.239-0.3947-0.404-0.5547c-0.331-0.3201-0.744-0.5389-1.133-0.7847-0.7892-0.4981-1.5035-1.123-2.352-1.5107-0.7063-0.3227-1.4865-0.4694-2.263-0.4741"/><path fill="ButtonText" stroke="#eeeeec" stroke-width=".25" d="m10.587 9.6024c-0.17331 0.043063-0.32782 0.15281-0.43197 0.29787s-0.15848 0.32383-0.16058 0.50239c-0.00188 0.16018 0.03748 0.32034 0.1109 0.46271s0.18056 0.26686 0.30874 0.36295c0.09292 0.06966 0.19639 0.12439 0.30355 0.16914 0.17369 0.07254 0.36021 0.1196 0.54842 0.11676 0.18821-0.0028 0.37842-0.058 0.5272-0.17331 0.11282-0.08744 0.1995-0.20808 0.24687-0.34272 0.04737-0.13465 0.05535-0.28282 0.02322-0.4219-0.03223-0.13951-0.10359-0.268-0.19381-0.37919-0.09022-0.11118-0.19905-0.20597-0.3129-0.29279-0.13931-0.10624-0.28858-0.20224-0.45324-0.26212-0.16465-0.05988-0.34636-0.082042-0.5164-0.039793"/><path fill="#eeeeec" d="m10.769 9.6679c-0.09923 0.023566-0.18924 0.082919-0.25151 0.16369-0.06227 0.080767-0.0967 0.18225-0.09834 0.28422-0.0015 0.09091 0.02269 0.18172 0.06653 0.26137s0.10706 0.14817 0.18123 0.20075c0.05525 0.03916 0.11633 0.06956 0.17922 0.09467 0.10295 0.04111 0.21264 0.06855 0.32348 0.06742 0.11085-0.0011 0.22313-0.03226 0.31158-0.09908 0.06422-0.04851 0.11468-0.11522 0.14306-0.19053s0.03446-0.159 0.01641-0.23743c-0.01838-0.07985-0.06096-0.15275-0.11451-0.21477-0.05355-0.062018-0.11791-0.11382-0.18466-0.16133-0.08362-0.059525-0.17245-0.11331-0.26947-0.14681-0.09703-0.033498-0.20315-0.045891-0.30302-0.022172"/><path fill="none" stroke="#eeeeec" stroke-linecap="round" stroke-linejoin="round" stroke-width=".5" d="m11.195 6.5928c-0.737 0.3952-1.3741 0.9763-1.8351 1.6746-0.3785 0.5731-0.6396 1.2279-0.7245 1.9096-0.034161 0.27417-0.039948 0.55186-0.017236 0.82721"/><path fill="none" stroke="#eeeeec" stroke-linecap="round" stroke-linejoin="round" stroke-width=".25" d="m9.6681 7.6564c-0.7243-0.7489-1.597-1.3538-2.5524-1.7692-0.9193-0.3996-1.9109-0.6234-2.9104-0.6982-0.4194-0.0315-0.8408-0.037-1.2609-0.0167"/></g></svg>