<svg xmlns="http://www.w3.org/2000/svg" width="16" height="16" version="1.1"><metadata/><g><path fill="ButtonText" d="m5.1094 1.027-4.0938 3.8125v5.375l1.7812 1.6562c0.81652-0.19285 1.5506-0.57945 2.0625-0.875 0.63103-0.36432 1.7783-1.2838 2.5312-4.0937 0.85706-3.1986 2.3882-4.8492 3.8438-5.5625l-0.34375-0.3125zm8.125 2.2812c-0.20463 0.01205-0.50601 0.07946-0.875 0.25-0.68297 0.31566-1.6459 1.1163-2.375 3.4375h1.875v2h-2.5c-0.88657 2.3087-2.1524 3.5667-3.5312 4.0625-0.50722 0.1824-0.97939 0.24725-1.4375 0.28125l0.71875 0.6875h5.7813l4.0938-3.8125v-5.375l-1.625-1.5312c-0.05085-0.0041-0.04396-0.0048-0.125 0z"/></g></svg>