<svg xmlns="http://www.w3.org/2000/svg" xmlns:svg="http://www.w3.org/2000/svg" id="svg7543" width="16" height="16" version="1.1"><metadata id="metadata7549"/><g id="g7551"><path style="fill:#f57900;fill-opacity:1;stroke:none" id="rect3143" d="m 3.0000004,1.0000052 c -1.108,0 -2,0.892 -2,2 l 0,8.9999948 c 0,1.108 0.892,2 2,2 L 13,14 c 1.108,0 2,-0.892 2,-2 l 0,-8.9999948 c 0,-1.108 -0.892,-2 -2,-2 L 3.0000004,1.0000052 z m 0,2 3,0 3.9999996,0 3,0 L 13,12 l -1,0 -1,0 -1,0 -3.9999996,0 -1,0 -1,0 -1,0 L 3.0000004,3.0000052 z m 1,1 0,1 1,0 0,-1 L 4.0000004,4.0000052 z m 2,0 0,1 3.9999996,0 0,-1 L 6.0000004,4.0000052 z m 4.9999996,0 0,1 1,0 0,-1 L 11,4.0000052 z m -6.9999996,2 0,1 1,0 0,-1 L 4.0000004,6.0000052 z m 2,0 0,2 1,0 2,0 0.9999996,0 0,-2 -0.9999996,0 -2,0 L 6.0000004,6.0000052 z m 4.9999996,0 0,1 1,0 0,-1 L 11,6.0000052 z m -6.9999996,2 0,1 1,0 0,-1 L 4.0000004,8.0000052 z m 6.9999996,0 0,1 1,0 0,-1 L 11,8.0000052 z m -4.9999996,1 0,1.9999948 L 10,11 l 0,-1.9999948 -0.9999996,0 -2,0 L 6.0000004,9.0000052 z m -2,0.9999948 0,1 1,0 0,-1 L 4.0000004,10 Z M 11,10 l 0,1 1,0 0,-1 L 11,10 Z"/></g></svg>