<svg xmlns="http://www.w3.org/2000/svg" width="16" height="16" version="1.1"><metadata/><g fill="ButtonText"><path stroke="ButtonText" stroke-linecap="round" stroke-linejoin="round" stroke-width="1.5" d="m4.75 5.25c-1.0414-1.5-0.9998-1.5-0.9998-1.5"/><path stroke="ButtonText" stroke-linecap="round" stroke-linejoin="round" stroke-width="1.5" d="m11.25 5.25c1.0414-1.5 0.99977-1.5 0.99977-1.5"/><path style="color:#000" fill-rule="evenodd" d="m344.36-43.751c0 3.3195-2.691 6.0104-6.0104 6.0104-3.3195 0-6.0104-2.691-6.0104-6.0104 0-3.3195 2.691-6.0104 6.0104-6.0104s6.0104 2.691 6.0104 6.0104zm18.031 0c0 3.3195 2.691 6.0104 6.0104 6.0104 3.3195 0 6.0104-2.691 6.0104-6.0104 0-3.3195-2.691-6.0104-6.0104-6.0104s-6.0104 2.691-6.0104 6.0104zm-9.0156-26.045c-19.644 0-35.611 21.435-36.062 48.083h72.125c-0.45157-26.648-16.418-48.083-36.062-48.083z" transform="matrix(-.16638 0 0 .12478 66.794 12.709)"/><path style="color:#000" fill-rule="evenodd" d="m14 14v-3h-12v3z"/></g></svg>