<svg xmlns="http://www.w3.org/2000/svg" width="16" height="16" version="1.1"><metadata/><g><g fill="#2bb2ff"><path fill="#2bb2ff" d="m-167 253.38c-5.9221 0-5.263 6.1979-6 10-0.44805 2.3115-1 3-1 3 2-1.0128 4-1.0128 7-1.0128 5 2 7 0 7 0s-1 0.0128-1-1.9872c0-3.3657-0.3125-10-6-10zm1.75 2.9872c0.60048-0.0657 1.16 0.55148 1.25 1.375s-0.33702 1.5281-0.9375 1.5938-1.16-0.55148-1.25-1.375 0.33702-1.5281 0.9375-1.5938zm-3.8906-0.0157c0.0817-0.004 0.16761 0.0142 0.25 0.0313 0.65916 0.13627 1.0427 0.87623 0.875 1.6875-0.16772 0.81127-0.84084 1.3863-1.5 1.25-0.65916-0.13627-1.0427-0.90748-0.875-1.7188 0.14675-0.70986 0.67782-1.2255 1.25-1.25zm-0.86 6.03s1-2 3-2 3 2 3 2-1-1-3-1-3 1-3 1z" transform="translate(175 -252.38)"/></g></g></svg>