<svg xmlns="http://www.w3.org/2000/svg" xmlns:svg="http://www.w3.org/2000/svg" id="svg8195" width="16" height="16" version="1.1"><metadata id="metadata8201"/><g id="g8203"><path style="fill:#2bb2ff;fill-opacity:1;stroke:none" id="path5648" d="m 7.9999995,0.9999995 c -5.9221,0 -5.26301,6.1979 -6,10.0000005 -0.44805,2.3115 -1,3 -1,3 C 3,14 6,13 8,12 c 2,1 7,2 7,2 0,0 -0.513992,-1.1862 -1,-3 C 13.128893,7.7489995 13.6875,0.9999995 7.9999995,0.9999995 z m 1.75,2.9872 c 0.6004805,-0.066 1.1599705,0.5515 1.2500005,1.375 0.09,0.8235 -0.33702,1.5281 -0.9375,1.5938 -0.6004805,0.066 -1.1599705,-0.5515 -1.2500005,-1.375 -0.09,-0.8236 0.33702,-1.5281 0.9375,-1.5938 z m -3.89062,-0.016 c 0.0817,0 0.16761,0.014 0.25,0.031 0.65916,0.1363 1.04272,0.8762 0.875,1.6875 -0.16772,0.8113 -0.84084,1.3863 -1.5,1.25 -0.65916,-0.1363 -1.04272,-0.9075 -0.875,-1.7187 0.14675,-0.7099 0.67782,-1.2255 1.25,-1.25 z M 11,7.9999995 C 11,7.9999995 11,11 7.9999995,11 c -3,0 -3,-3.0000005 -3,-3.0000005 z"/></g></svg>