<svg xmlns="http://www.w3.org/2000/svg" xmlns:svg="http://www.w3.org/2000/svg" id="svg6901" width="16" height="16" version="1.1"><metadata id="metadata6907"/><g id="g6909"><g id="g6925" transform="translate(0,-1036.3622)" style="fill:ButtonText;fill-opacity:1"><path id="rect6629" d="M 3,7 C 2.4459904,7 2,7.4459904 2,8 L 14,8 C 14,7.4459904 13.55401,7 13,7 L 3,7 z M 2,9 2,10 7,10 7,9 2,9 z m 7,0 0,1 5,0 0,-1 -5,0 z m -7,2 0,1 5,0 0,-1 -5,0 z m 7,0 0,1 5,0 0,-1 -5,0 z m -7,2 c 0,0.55401 0.4459904,1 1,1 l 10,0 c 0.55401,0 1,-0.44599 1,-1 l -5,0 -2,0 -5,0 z" transform="translate(0,1036.3622)" style="color:#000;fill:ButtonText;fill-opacity:1;fill-rule:nonzero;stroke:none;stroke-width:6;marker:none;visibility:visible;display:inline;overflow:visible;enable-background:accumulate"/><path id="path6657" d="m 8,1037.3935 c -0.998066,0 -1.8296322,0.4982 -2.4375,1.1562 -0.6078678,0.658 -1.041769,1.4877 -1.375,2.2813 -0.2268534,0.5402 -0.3911201,1.0563 -0.53125,1.5312 l 1.5625,0 c 0.097529,-0.2999 0.2109987,-0.6214 0.34375,-0.9375 0.291769,-0.6948 0.6703678,-1.3855 1.09375,-1.8437 0.4233822,-0.4583 0.841816,-0.6875 1.34375,-0.6875 0.501934,0 0.9203678,0.2292 1.34375,0.6875 0.4233822,0.4582 0.801981,1.1489 1.09375,1.8437 0.132751,0.3161 0.246221,0.6376 0.34375,0.9375 l 1.5625,0 c -0.14013,-0.4749 -0.304397,-0.991 -0.53125,-1.5312 -0.333231,-0.7936 -0.767132,-1.6233 -1.375,-2.2813 -0.6078678,-0.658 -1.439434,-1.1562 -2.4375,-1.1562 z" style="font-size:medium;font-style:normal;font-variant:normal;font-weight:400;font-stretch:normal;text-indent:0;text-align:start;text-decoration:none;line-height:normal;letter-spacing:normal;word-spacing:normal;text-transform:none;direction:ltr;block-progression:tb;writing-mode:lr-tb;text-anchor:start;baseline-shift:baseline;color:#000;fill:ButtonText;fill-opacity:1;stroke:none;stroke-width:1.5;marker:none;visibility:visible;display:inline;overflow:visible;enable-background:accumulate;font-family:Sans;-inkscape-font-specification:Sans"/></g></g></svg>