<svg xmlns="http://www.w3.org/2000/svg" xmlns:svg="http://www.w3.org/2000/svg" id="svg8317" width="16" height="16" version="1.1"><metadata id="metadata8323"/><g id="g8325"><path style="fill:ButtonText" id="path8327" d="M 3.09375 1.0625 C 1.994044 1.0625 1.09375 1.931544 1.09375 3.03125 L 1.09375 12.96875 C 1.09375 14.068457 1.9940342 14.9375 3.09375 14.9375 L 13 14.9375 C 14.099707 14.9375 15 14.068457 15 12.96875 L 15 3.03125 C 15 1.931544 14.099716 1.0625 13 1.0625 L 3.09375 1.0625 z M 6.375 3.15625 L 8 5.96875 L 9.625 3.15625 L 11.375 4.15625 L 9.75 7 L 13 7 L 13 9 L 9.75 9 L 11.375 11.84375 L 9.625 12.84375 L 8 10.03125 L 6.375 12.84375 L 4.625 11.84375 L 6.25 9 L 3 9 L 3 7 L 6.25 7 L 4.625 4.15625 L 6.375 3.15625 z"/><rect id="rect8355" width="8" height="2" x="4" y="7" style="fill:#fff;fill-opacity:1;stroke:none"/></g></svg>