<svg xmlns="http://www.w3.org/2000/svg" xmlns:svg="http://www.w3.org/2000/svg" id="svg8146" width="16" height="16" version="1.1" viewBox="0 0 16 16"><metadata id="metadata8148"/><title id="title8154">Gnome Symbolic Icon Theme</title><g id="g8156" fill="ButtonText" transform="translate(-81,-397)"><g style="font-style:normal;font-variant:normal;font-weight:400;font-stretch:normal;font-size:medium;line-height:125%;font-family:Oswald;-inkscape-font-specification:Oswald;letter-spacing:0;word-spacing:0;fill:#fff;fill-opacity:1;stroke:none;stroke-width:.78350258px;stroke-linecap:butt;stroke-linejoin:miter;stroke-opacity:1" id="g9223" transform="matrix(1.014027,0,0,0.98616699,-447.00003,-543.36217)"><rect id="rect9168" width="15.779" height="16.224" x="520.696" y="953.553" style="opacity:1;fill:#fff;fill-opacity:0;stroke:none;stroke-width:6;stroke-linecap:round;stroke-linejoin:round;stroke-miterlimit:4;stroke-dasharray:none;stroke-dashoffset:0;stroke-opacity:1"/><path id="ellipse9209" d="m 792.01367,288.98633 a 6.9999999,6.9999996 0 0 0 -7,7 6.9999999,6.9999996 0 0 0 7,7 6.9999999,6.9999996 0 0 0 7,-7 6.9999999,6.9999996 0 0 0 -7,-7 z m 0.20313,2.21289 c 0.55141,0 1.07045,0.0497 1.55859,0.14648 0.48813,0.0879 0.99417,0.2187 1.31055,0.39453 l -0.58203,1.51758 c -0.19887,-0.12307 -0.60031,-0.23337 -0.99805,-0.33008 -1.08379,-0.3588 -1.84291,-0.2988 -2.23047,0.34571 -0.33672,0.55995 -0.0595,0.99411 0.14844,1.16992 0.21695,0.17583 0.24611,0.24703 0.5625,0.39648 0.32542,0.14945 0.67429,0.3027 1.04492,0.46094 0.37966,0.15824 0.72658,0.35151 1.04297,0.58008 0.32542,0.21978 0.59286,0.49797 0.80078,0.83203 0.21694,0.32527 0.32422,0.7323 0.32422,1.22461 0,0.4923 -0.0861,0.91886 -0.25781,1.2793 -0.16271,0.35164 -0.39774,0.64739 -0.70508,0.88476 -0.29831,0.23736 -0.66376,0.41306 -1.09766,0.52735 -0.42486,0.11428 -0.8949,0.17187 -1.41015,0.17187 -0.67797,0 -1.27382,-0.0625 -1.78907,-0.18555 -0.51525,-0.12308 -0.89459,-0.24605 -1.13867,-0.36914 l 0.5957,-1.54297 c 0.0995,0.0528 0.22524,0.11034 0.37891,0.17188 0.16272,0.0615 0.3441,0.11913 0.54297,0.17188 0.19887,0.0528 0.4061,0.0957 0.62305,0.13085 0.22598,0.0352 0.45832,0.0527 0.69336,0.0527 0.5514,0 0.97049,-0.0878 1.25976,-0.26367 0.2983,-0.18462 0.44727,-0.46086 0.44727,-0.83008 0,-0.28132 -0.10728,-0.50972 -0.32422,-0.68555 -0.20791,-0.17582 -0.47536,-0.33394 -0.80078,-0.47461 -0.31639,-0.14944 -0.66526,-0.29976 -1.04492,-0.44922 -0.37063,-0.15823 -0.87185,-0.34663 -1.19727,-0.5664 -0.31639,-0.22858 -0.62095,-0.50969 -0.83789,-0.84375 -0.20792,-0.33408 -0.31055,-0.76061 -0.31055,-1.2793 0,-0.44835 0.0768,-0.83488 0.23047,-1.16016 0.15368,-0.33405 0.40727,-0.61225 0.6875,-0.83203 0.28926,-0.21978 0.75584,-0.41013 1.14453,-0.51562 0.3887,-0.10549 0.84903,-0.13086 1.32813,-0.13086 z" transform="matrix(0.98616704,0,0,1.014027,-252.45876,661.51291)" style="opacity:1;fill:#000;fill-opacity:1;stroke:none;stroke-width:2;stroke-linecap:round;stroke-linejoin:round;stroke-miterlimit:4;stroke-dasharray:none;stroke-dashoffset:0;stroke-opacity:1"/></g></g></svg>