<svg xmlns="http://www.w3.org/2000/svg" xmlns:svg="http://www.w3.org/2000/svg" id="svg8146" width="16" height="16" version="1.1" viewBox="0 0 16 16"><metadata id="metadata8148"/><title id="title8154">Gnome Symbolic Icon Theme</title><g id="g8156" fill="ButtonText" transform="translate(-81,-397)"><g style="font-style:normal;font-variant:normal;font-weight:400;font-stretch:normal;font-size:medium;line-height:125%;font-family:Oswald;-inkscape-font-specification:Oswald;letter-spacing:0;word-spacing:0;fill:#fff;fill-opacity:1;stroke:none;stroke-width:.78350258px;stroke-linecap:butt;stroke-linejoin:miter;stroke-opacity:1" id="g9219" transform="matrix(1.014027,0,0,0.98616699,-479.0276,-543.33954)"><path id="path9184" d="m 824,289 a 6.9999999,6.9999993 0 0 0 -7,7 6.9999999,6.9999993 0 0 0 1.40039,4.18555 l 9.78516,-9.78516 A 6.9999999,6.9999993 0 0 0 824,289 Z m 0.25391,1.95508 c 0.57698,0 1.12202,0.0512 1.63281,0.15234 0.0828,0.0149 0.16128,0.0374 0.24414,0.0547 l -1.40234,1.40234 c -0.67132,-0.081 -1.16846,0.0754 -1.45899,0.5586 -0.23624,0.39286 -0.17647,0.71854 -0.0508,0.95117 l -1.60937,1.60937 c -0.216,-0.18785 -0.42044,-0.39105 -0.57618,-0.63086 -0.21755,-0.34955 -0.32617,-0.79514 -0.32617,-1.33789 0,-0.46914 0.0794,-0.87447 0.24024,-1.21484 0.1608,-0.34955 0.42552,-0.63917 0.71875,-0.86914 0.30267,-0.22997 0.79052,-0.42867 1.19726,-0.53906 0.40673,-0.11038 0.8893,-0.13672 1.39063,-0.13672 z m 5.3457,0.85937 -9.78516,9.78711 A 6.9999999,6.9999993 0 0 0 824,303 a 6.9999999,6.9999993 0 0 0 7,-7 6.9999999,6.9999993 0 0 0 -1.40039,-4.18555 z m -3.04492,4.33789 c 0.18061,0.16993 0.34648,0.35504 0.48047,0.57032 0.227,0.34035 0.33984,0.76806 0.33984,1.2832 0,0.51514 -0.0898,0.96073 -0.26953,1.33789 -0.17026,0.36795 -0.41472,0.67741 -0.73633,0.92578 -0.31214,0.24838 -0.69636,0.4312 -1.15039,0.55078 C 824.77418,300.9399 824.2833,301 823.74414,301 c -0.69911,0 -1.31389,-0.0644 -1.84766,-0.18945 l 1.47461,-1.47461 c 0.0915,0.005 0.18062,0.0215 0.27344,0.0215 0.57699,0 1.01764,-0.0914 1.32031,-0.27539 0.31214,-0.19318 0.4668,-0.48279 0.4668,-0.86914 0,-0.26369 -0.10495,-0.47527 -0.28711,-0.65039 l 1.41016,-1.41016 z" transform="matrix(0.98616704,0,0,1.014027,-252.45876,661.51291)" style="opacity:1;fill:#000;fill-opacity:1;stroke:none;stroke-width:2;stroke-linecap:round;stroke-linejoin:round;stroke-miterlimit:4;stroke-dasharray:none;stroke-dashoffset:0;stroke-opacity:1"/><rect style="opacity:1;fill:#fff;fill-opacity:0;stroke:none;stroke-width:6;stroke-linecap:round;stroke-linejoin:round;stroke-miterlimit:4;stroke-dasharray:none;stroke-dashoffset:0;stroke-opacity:1" id="rect9176" width="15.779" height="16.224" x="552.281" y="953.53"/></g></g></svg>