<svg xmlns="http://www.w3.org/2000/svg" xmlns:svg="http://www.w3.org/2000/svg" id="svg6222" width="16" height="16" version="1.1" viewBox="0 0 16 16"><metadata id="metadata6224"/><path style="fill:ButtonText" id="path6230" d="M 2 1 C 1.446 1 1 1.446 1 2 L 1 14 C 1 14.554 1.446 15 2 15 C 2.554 15 3 14.554 3 14 L 3 11 C 3 11 3.4817308 10.375 5.3125 10.375 C 7.5740385 10.375 9.2802887 11.875 11.21875 11.875 C 12.834135 11.875 14.041346 11.166817 14.6875 10.5625 C 14.902885 10.361061 15 10.052159 15 9.75 L 15 2.625 C 15 2.2221223 14.774519 2 14.34375 2 C 14.128366 2 13.934135 2.1110612 13.71875 2.3125 C 13.503366 2.5139389 12.643269 3.125 10.8125 3.125 C 9.0894231 3.125 7.6850962 1.59375 5.53125 1.59375 C 4.2312955 1.59375 3.4531566 1.8254541 3 2 C 3 1.446 2.554 1 2 1 z M 3.5 3 C 3.777 3 4 3.223 4 3.5 L 4 8.65625 C 4 8.93325 3.777 9.15625 3.5 9.15625 C 3.223 9.15625 3 8.93325 3 8.65625 L 3 3.5 C 3 3.223 3.223 3 3.5 3 z"/></svg>