<svg xmlns="http://www.w3.org/2000/svg" xmlns:osb="http://www.openswatchbook.org/uri/2009/osb" width="16" height="16" version="1.1"><title>Gnome Symbolic Icon Theme</title><metadata/><g><g transform="translate(-228 -997)"><rect style="color:ButtonText" width="16" height="16" x="228" y="996" fill="none"/></g></g><rect style="color:ButtonText" width="16" height="16" x="0" y="-1" fill="none"/><g fill="ButtonText"><path d="m2 2c-1.001 0-0.9375 0.7109-0.9375 1v10c0 0.976 0.4641 1 1 1h11.938c0.536 0 1-0.074 1-1v-5c0-1-0.414-1-1-1h-10v4c0 0.277 0.0624 1-0.4375 1-0.5 0-0.5-0.723-0.5-1l-0.0625-4c0-1 0.4433-1 1-1h9v-1c0-0.5984 0-1-1-1h-6v-1c0-0.2892-0.0244-1-1-1h-3zm7.1875 5.8125c0.3328-0.0453 0.7419 0.1075 1.1565 0.6875 1.105 1.547 2.468 3.562 2.468 3.562s-0.418 1.676-1.468 0.626c-0.31-0.31-1.4065-2.626-1.4065-2.626s-0.613-1.3512-1.1875 0.063c-0.5745 1.414-1.2812 2.594-1.2812 2.594s-1.1853 1.064-1.4063-0.969l2.1875-3.25s0.3829-0.612 0.9375-0.6875z"/><path d="m6.3198 3.8024s0.14055-1.7678-0.35355-1.7678c-0.044194 0 3.1378 0.044195 3.1378 0.044195v1.7236z"/><path d="m9.5017 2.123 0.044194 1.591 2.8726 0.044194 0.04419-1.591z"/></g></svg>