<svg xmlns="http://www.w3.org/2000/svg" xmlns:svg="http://www.w3.org/2000/svg" id="svg7158" width="16" height="16" version="1.1"><metadata id="metadata7164"/><g id="g7166"><g id="g7733" transform="translate(18.348371,0.25483849)"><path id="path6981" d="m -15.366141,0.82257737 c -1.10801,0 -2,0.89200003 -2,2.00000003 l 0,8.9999996 c 0,1.108 0.89199,2 2,2 l 8.0937503,0 -0.375,-1.40625 -2.0625,0.375 -1.8750003,0.375 1.125,-1.53125 1.2500003,-1.7187496 -1.2187503,-1.0625 -3.9375,2.9687496 0,-1 0,-0.9999996 2.84375,-1.90625 -0.46875,-0.40625 -3.375,-1.6875 0,-1 0,-3 5,5.15625 2.2187503,-2.3125 0.75,-0.75 2.03125,-2.09375 -0.04687,3 c -0.01222,0.6146702 0.0337,1.0404705 0,1.34375 l 1.640625,-1.25 0.406245,-0.3125 0,-1.78125 C -3.3661407,1.7145774 -4.2581307,0.82257737 -5.3661407,0.82257737 Z" style="fill:#0086c3;fill-opacity:1;stroke:none"/><path id="path6983" d="m -100.24286,-139.99286 -3.35872,-1.45739 -1.71729,3.23356 -0.95471,-3.53462 -3.5988,0.67346 2.16822,-2.95021 -2.77035,-2.39377 3.65844,-0.14424 0.14424,-3.65844 2.39377,2.77035 2.95021,-2.16822 -0.67346,3.5988 3.53462,0.95471 L -101.70025,-143.35158 Z" transform="matrix(0.76478668,0,0,0.76478668,74.176329,119.95768)" style="fill:#fc0;fill-opacity:1;stroke:none"/></g></g></svg>