<svg xmlns="http://www.w3.org/2000/svg" width="16" height="16" version="1.1"><metadata/><g><g><path style="color:#bebebe" fill="#f57900" d="m-69.047 1025.7c-0.49245 0-0.875 0.3826-0.875 0.875v6.25c0 0.4924 0.38255 0.875 0.875 0.875h6.25c0.49245 0 0.875-0.3826 0.875-0.875v-6.25c0-0.4924-0.38255-0.875-0.875-0.875h-6.25zm2.125 1h2v4h-2v-4zm0 5h2v1h-2v-1z" class="warning" transform="translate(77.922 -1017.7)"/></g><path fill="ButtonText" d="m3 1c-1.108 0-2 0.892-2 2v9c0 1.108 0.89199 2 2 2h4.0625v-4.3125l-3.0625 2.3125v-1-1l3-2-4-2v-1-3l4.8125 4.9688c0.1156-0.0403 0.2123-0.0938 0.3437-0.0938h0.125l4.7188-4.875v3 1l-1.75 0.875h3.75v-3.875c0-1.108-0.892-2-2-2h-10z"/></g></svg>