<svg xmlns="http://www.w3.org/2000/svg" width="16" height="16" version="1.1"><metadata/><g><g fill="ButtonText"><path fill="ButtonText" d="m-0.68205 1061.5c-1.2413 0-2.25 0.8826-2.25 1.9688-0.0000195 0.7331 0.47649 1.3493 1.1562 1.6875l0.03125 0.1875h-2.5625c-0.7511 0-1.3438 0.5614-1.3438 1.3125v1.5625l-0.21875-0.031c-0.33965-0.6922-0.95844-1.1875-1.6875-1.1875-1.0861 0-1.9688 1.0367-1.9688 2.3125 0 1.2757 0.88261 2.3125 1.9688 2.3125 0.73315 0 1.3493-0.4575 1.6875-1.1562l0.21875-0.031v2.5313c0 0.751 0.5614 1.3437 1.3125 1.3437h2.6875v-0.1875c-0.6146-0.3011-1.0312-0.8473-1.0312-1.5 0-0.9669 0.90915-1.75 2.0313-1.75s2.0312 0.7831 2.0312 1.75c0 0.6491-0.42235 1.1976-1.0312 1.5v0.1875h2.625c0.7511 0 1.375-0.5927 1.375-1.3437v-6.3125c0-0.7511-0.5614-1.3125-1.3125-1.3125h-2.6562l0.03125-0.1875c0.67347-0.3397 1.1562-0.9585 1.1562-1.6875-0.000019-1.0862-1.0086-1.9688-2.25-1.9688z" transform="matrix(1.0052 0 0 1.0147 10.597 -1076.1)"/></g></g></svg>