<svg xmlns="http://www.w3.org/2000/svg" xmlns:svg="http://www.w3.org/2000/svg" id="svg7384" width="16" height="16" version="1.1"><metadata id="metadata90"/><title id="title9167">Gnome Symbolic Icon Theme</title><g id="layer13" transform="translate(-501.0002,-195)"><g id="g6673" transform="translate(-282.9998,-537.36218)" style="fill:ButtonText;fill-opacity:1"><g id="g10266"><path style="fill:ButtonText;fill-opacity:1" id="path6105" d="m 796.5,733.3622 -9,0 c -1.4,0 -2.5,1.1 -2.5,2.5 l 0,5 c 0,1.4 1.1,2.5 2.5,2.5 l 6.4,0 3.1,4 0,-4.1 c 1.1,-0.2 2,-1.2 2,-2.4 l 0,-5 c 0,-1.4 -1.1,-2.5 -2.5,-2.5 z m -3.5,4 c 0,-0.6 0.4,-1 1,-1 0.6,0 1,0.4 1,1 0,0.6 -0.4,1 -1,1 -0.6,0 -1,-0.4 -1,-1 0,0 0,0 0,0 z m -4,0 c 0,-0.6 0.4,-1 1,-1 0.6,0 1,0.4 1,1 0,0.6 -0.4,1 -1,1 -0.6,0 -1,-0.4 -1,-1 0,0 0,0 0,0 z m 6.8,2.9 c -0.8,0.7 -2.2,1.1 -3.8,1.1 -1.6,0 -3,-0.4 -3.8,-1.1 -0.2,-0.2 -0.3,-0.5 -0.1,-0.7 0.2,-0.2 0.5,-0.2 0.7,-0.1 0.6,0.6 1.9,0.9 3.2,0.9 1.3,0 2.6,-0.3 3.2,-0.9 0.2,-0.1 0.5,-0.1 0.7,0.1 0.2,0.2 0.1,0.5 -0.1,0.7 z"/><rect style="opacity:0;fill:ButtonText;fill-opacity:1;stroke:none;stroke-width:15.11811066;stroke-linecap:round;stroke-linejoin:round;stroke-miterlimit:4;stroke-dasharray:none;stroke-opacity:1" id="rect6671" width="16" height="16" x="784" y="732.362"/></g></g></g></svg>