<svg xmlns="http://www.w3.org/2000/svg" width="16" height="16" version="1.1"><metadata/><g fill="ButtonText"><path d="m453.83 462.62c-1.9114 0-3.4375 1.5314-3.4375 3.4375 0 0.39829 0.0943 0.80038 0.21875 1.1562l-7.3125 7.25c-0.54885 0.55595-0.5262 1.5464 0.0312 2.0938 0.55748 0.54734 1.5448 0.55592 2.0938 0l7.2812-7.25c0.35692 0.12405 0.72567 0.21875 1.125 0.21875 1.9114 0 3.4688-1.5626 3.4688-3.4688 0-0.39829-0.0943-0.76909-0.21875-1.125l-1.875 1.875c-0.3874 0.38628-1.019 0.38628-1.4062 0l-0.6875-0.71875c-0.38735-0.3863-0.38735-0.98873 0-1.375l1.875-1.875c-0.35692-0.12415-0.75697-0.21875-1.1562-0.21875z" transform="translate(-442 -462)" style="block-progression:tb;color:#000;text-transform:none;text-indent:0"/></g></svg>