<svg xmlns="http://www.w3.org/2000/svg" xmlns:svg="http://www.w3.org/2000/svg" id="svg6651" width="16" height="16" version="1.1"><metadata id="metadata6653"/><title id="title6659">Gnome Symbolic Icon Theme</title><g id="g6661" fill="ButtonText" transform="translate(-101 -647)"><g id="g6537" transform="translate(101,646.97382)"><g style="display:inline" id="layer12" transform="translate(-223.0002,-647)"><g id="g2999" transform="matrix(1,0,0,0.99836583,223.0002,646.9687)"><g style="fill:#bebebe;fill-opacity:1" id="layer14-85" transform="translate(-62,-740)"><path style="color:#bebebe;fill:ButtonText;fill-opacity:1;fill-rule:nonzero;stroke:none;stroke-width:1;marker:none;visibility:visible;display:inline;overflow:visible;enable-background:accumulate" id="path4387" d="m 858,81.000007 c -2.19262,0 -4.06633,0 -7,0 -0.6325,0.0455 -1,0.468794 -1,1 0.003,4.24996 0,8.777507 0,13.000001 0.057,0.62486 0.34479,0.999992 1,0.999992 3.4,8e-6 6.93755,0.03127 10,8e-6 0.64225,0 1,-0.310956 1,-1 -0.004,-3.25599 0.0152,-6.74439 0,-10 0,-0.53125 -0.56235,-0.937358 -1.0625,-1.437508 -0.80258,-0.78917 -1.55462,-1.60576 -2.375,-2.375 -0.24523,-0.151565 -0.27793,-0.183747 -0.5625,-0.187493 z m -3,5.000001 2,0 0,5 2,0 -3,3 -3,-3 2,0 z" transform="matrix(1,0,0,1.0016368,-786,659.91271)"/></g><rect style="fill-opacity:0;fill-rule:nonzero" id="rect2998" width="16" height="16" x="0" y=".031"/></g></g></g></g></svg>