<svg xmlns="http://www.w3.org/2000/svg" width="16" height="16" version="1.1"><metadata/><title>Gnome Symbolic Icon Theme</title><g><g fill="ButtonText"><path style="color:#000" fill="ButtonText" d="m126 540-6 6 6 6h9.0353c0.53-0.02 0.96-0.49 0.96-1v-10c0-0.53079-0.34561-1-1.0089-1h-8.99zm1 3h1c0.0104-0.00012 0.0208-0.00046 0.0313 0 0.25495 0.0112 0.50987 0.12858 0.6875 0.3125l1.2812 1.2812 1.3125-1.2812c0.27-0.23 0.45-0.3 0.69-0.31h1v1c0 0.28647-0.0343 0.55065-0.25 0.75l-1.2812 1.2812 1.25 1.25c0.19 0.19 0.28 0.45 0.28 0.72v1h-1c-0.2653-0.00001-0.53059-0.0931-0.71875-0.28125l-1.28-1.28-1.2812 1.2812c-0.19 0.19-0.45 0.28-0.72 0.28h-1v-1c0-0.26529 0.0931-0.53058 0.28125-0.71875l1.2812-1.25-1.2812-1.2812c-0.21-0.19-0.3-0.47-0.28-0.75v-1z" transform="translate(-120,-538) translate(79,-222) translate(-79,222)"/></g></g></svg>