<svg xmlns="http://www.w3.org/2000/svg" width="16" height="16" version="1.1"><metadata/><title>Gnome Symbolic Icon Theme</title><g><path style="color:#000;text-transform:none;text-indent:0" fill="ButtonText" d="m6.5 1.0312c-3.0289 0-5.5 2.4746-5.5 5.5 0 3.0255 2.4711 5.4998 5.5 5.4998 1.152 0 2.2377-0.358 3.125-0.969l3.687 3.688a1.0055 1.0055 0 1 0 1.407 -1.438l-3.688-3.687c0.611-0.8859 1-1.9439 1-3.0938 0-3.0254-2.5022-5.5-5.531-5.5zm0 2c1.9474 0 3.5 1.5549 3.5 3.5 0 1.9452-1.5526 3.4998-3.5 3.4998s-3.5-1.5546-3.5-3.4998c0-1.9451 1.5526-3.5 3.5-3.5z" transform="translate(-140 -645.97) translate(140 645.97)"/></g></svg>