<svg xmlns="http://www.w3.org/2000/svg" width="16.05" height="16.062" version="1.1"><metadata/><title>Gnome Symbolic Icon Theme</title><g><g fill="ButtonText"><path style="block-progression:tb;color:#000;text-transform:none;text-indent:0" d="m84.094 967.36c-2.965 0-5.4314 2.1652-5.9062 5h2.0625c0.44228-1.7288 1.9706-3 3.8438-3s3.4015 1.2712 3.8438 3h2.0625c-0.47482-2.8348-2.9413-5-5.9062-5zm-5.9062 7c0.47482 2.8348 2.9413 5 5.9062 5 2.965 0 5.4314-2.1652 5.9062-5h-2.0625c-0.44228 1.7288-1.9706 3-3.8438 3s-3.4015-1.2712-3.8438-3h-2.0625z" transform="translate(-501.95 -381.94) translate(425.86 -583.36)"/><path d="m78.094 974.36h5l-5 5z" transform="translate(-501.95 -381.94) translate(425.86 -583.36)"/><path d="m90.094 972.36h-5l5-5z" transform="translate(-501.95 -381.94) translate(425.86 -583.36)"/></g></g></svg>