<svg xmlns="http://www.w3.org/2000/svg" width="16" height="16" version="1.1"><metadata/><title>Gnome Symbolic Icon Theme</title><g fill="ButtonText"><path style="color:#000;enable-background:new" d="m291 178.03a1.9688 1.9688 0 1 1 -3.9375 0 1.9688 1.9688 0 1 1 3.9375 0z" transform="translate(-521 -381) matrix(1.5079 0 0 1.5079 88.16 120.51)"/><path style="color:#000;enable-background:new" d="m291 178.03a1.9688 1.9688 0 1 1 -3.9375 0 1.9688 1.9688 0 1 1 3.9375 0z" transform="translate(-521 -381) matrix(1.5079 0 0 1.5079 98.128 125.51)"/><path style="color:#000;enable-background:new" d="m291 178.03a1.9688 1.9688 0 1 1 -3.9375 0 1.9688 1.9688 0 1 1 3.9375 0z" transform="translate(-521 -381) matrix(1.5079 0 0 1.5079 98.128 115.51)"/><path style="block-progression:tb;text-indent:0;color:#000;text-transform:none" d="m533.62 383.16-10.062 4.875-1.8125 0.90625 1.8125 0.90625 10.031 5.0625 0.90625-1.8125-8.2188-4.1562 8.2188-4-0.875-1.7812z" transform="translate(-521 -381)"/></g></svg>