<svg xmlns="http://www.w3.org/2000/svg" xmlns:svg="http://www.w3.org/2000/svg" id="svg6494" width="16" height="16" version="1.1"><metadata id="metadata6500"/><g id="g6502"><rect id="rect8633" width="16" height="16" x="-14" y="-3" style="opacity:0;color:#000;fill:ButtonText;fill-opacity:1;fill-rule:evenodd;stroke:none;stroke-width:2;marker:none;visibility:visible;display:inline;overflow:visible;enable-background:accumulate"/><path id="path8614" d="m 7.96875,1 c -3.865995,0 -7,3.1340067 -7,7 0,3.865993 3.134005,7 7,7 3.865995,0 7,-3.134007 7,-7 0,-3.8659933 -3.134005,-7 -7,-7 z M 2.90625,5.75 4.4375,7.28125 C 5.3562,6.355781 6.59595,5.75 8,5.75 c 2.51004,0 4.59804,1.850169 5,4.25 l -1.75,0 C 10.87558,8.536483 9.58576,7.46875 8,7.46875 c -0.94154,0 -1.77064,0.385405 -2.375,1 L 7.15625,10 4.75,10 3,10 l -0.0937,0 0,-4.25 z" style="color:#000;fill:#ef2929;fill-opacity:1;fill-rule:evenodd;stroke:none;stroke-width:2;marker:none;visibility:visible;display:inline;overflow:visible;enable-background:accumulate"/></g></svg>