<svg xmlns="http://www.w3.org/2000/svg" xmlns:svg="http://www.w3.org/2000/svg" id="svg7384" width="16.007" height="16.008" version="1.1"><metadata id="metadata90"/><title id="title9167">Gnome Symbolic Icon Theme</title><g id="layer12" transform="translate(-180.96716,-806.99245)" style="display:inline"><path id="path4640" d="m 188.3752,807 c -0.22882,0.0437 -0.41035,0.2667 -0.40625,0.5 l 0,0.59375 c -3.16079,0.24582 -5.67637,2.75322 -5.9375,5.90625 l -0.5,0 c -0.031,-0.003 -0.0627,-0.003 -0.0937,0 -0.26195,0.0238 -0.49328,0.30019 -0.46875,0.5625 0.0246,0.26231 0.3007,0.46288 0.5625,0.4375 l 0.5,0 c 0.23256,3.18201 2.7559,5.75257 5.9375,6 l 0,0.5 c -0.004,0.26416 0.23626,0.53125 0.5,0.53125 0.26374,0 0.50372,-0.26709 0.5,-0.53125 l 0,-0.5 c 3.20261,-0.23774 5.75016,-2.82717 5.96875,-6.03125 l 0.53125,0 c 0.26372,0.004 0.5,-0.23582 0.5,-0.5 0,-0.26418 -0.23628,-0.50374 -0.5,-0.5 l -0.53125,0 c -0.27588,-3.14608 -2.80782,-5.64035 -5.96875,-5.875 l 0,-0.59375 c 0.005,-0.29617 -0.30327,-0.55555 -0.59375,-0.5 z m 0.0937,3.0625 c 2.49225,0 4.5,1.9794 4.5,4.46875 0,2.48935 -2.00775,4.5 -4.5,4.5 -0.0213,0 -0.0413,2.9e-4 -0.0625,0 -2.46253,-0.0337 -4.40625,-2.03188 -4.40625,-4.5 6.7e-4,-0.01 0,-0.0213 0,-0.0312 0.0169,-2.47452 1.98714,-4.4375 4.46875,-4.4375 z" style="font-size:medium;font-style:normal;font-variant:normal;font-weight:400;font-stretch:normal;text-indent:0;text-align:start;text-decoration:none;line-height:normal;letter-spacing:normal;word-spacing:normal;text-transform:none;direction:ltr;block-progression:tb;writing-mode:lr-tb;text-anchor:start;baseline-shift:baseline;color:#000;fill:ButtonText;fill-opacity:1;stroke:none;stroke-width:2.1564927100000002;marker:none;visibility:visible;display:inline;overflow:visible;enable-background:accumulate;font-family:Sans;-inkscape-font-specification:Sans"/><path id="path5428" d="m -91,478 c 0,0.55228 -0.447715,1 -1,1 -0.552285,0 -1,-0.44772 -1,-1 0,-0.55228 0.447715,-1 1,-1 0.552285,0 1,0.44772 1,1 z" transform="matrix(3.5030816,0,0,3.50887,510.76439,-862.731)" style="color:#000;fill:ButtonText;fill-opacity:1;stroke:none;stroke-width:2;marker:none;visibility:visible;display:inline;overflow:visible;enable-background:new"/></g></svg>