<svg xmlns="http://www.w3.org/2000/svg" xmlns:svg="http://www.w3.org/2000/svg" id="svg6235" width="16" height="16" version="1.1"><metadata id="metadata6237"/><title id="title6243">Gnome Symbolic Icon Theme</title><defs id="defs6245"><linearGradient id="a" x1="1" x2="15" y1="8" y2="8" gradientTransform="translate(180,626)" gradientUnits="userSpaceOnUse"><stop id="stop6248" offset="0" stop-color="#ff0"/><stop id="stop6250" offset=".206" stop-color="#ff0"/><stop id="stop6252" offset="1" stop-color="#ff0"/></linearGradient></defs><g id="g6254" transform="translate(-180,-626)"><path id="path6256" fill="ButtonText" d="m181 629v10h14v-10z"/><path id="path6258" d="m 181,629 0,10 14,0 0,-10 z m 7.25,0.75 c 0.48756,8e-5 0.89627,0.0562 1.25,0.15625 0.3585,0.0957 0.6768,0.25362 0.90625,0.46875 0.23422,0.21031 0.38527,0.48264 0.5,0.8125 0.11471,0.32978 0.18749,0.719 0.1875,1.1875 l 0,5.625 -1.0625,0 -0.23706,-0.98331 -0.0625,0 c -0.55592,0.73382 -1.06607,0.98478 -2.46149,0.98478 -0.45092,0 -0.62901,-0.061 -0.90625,-0.15625 -0.27725,-0.0908 -0.51321,-0.2151 -0.71875,-0.40625 -0.20076,-0.19604 -0.35403,-0.45838 -0.46875,-0.75 -0.11472,-0.2963 -0.1875,-0.62973 -0.1875,-1.0312 0,-0.78393 0.30509,-1.50239 0.8548,-1.92299 0.55449,-0.42071 1.36085,-0.69344 2.48895,-0.73169 l 1.35485,-0.0183 0,-0.23483 c -10e-6,-0.32032 -0.0533,-0.56612 -0.125,-0.78125 -0.0669,-0.21513 -0.14741,-0.40224 -0.28125,-0.53125 -0.12907,-0.1339 -0.30402,-0.22392 -0.5,-0.28125 -0.19121,-0.0577 -0.40769,-0.0937 -0.65625,-0.0937 -0.39675,0 -0.78084,0.0732 -1.125,0.1875 -0.33939,0.11474 -0.65327,0.24372 -0.96875,0.40625 l -0.34375,-1.2188 c 0.35372,-0.19115 0.75251,-0.33485 1.1875,-0.46875 0.43498,-0.13382 0.89699,-0.21867 1.375,-0.21875 z m 1.3438,4.2656 -1.0312,0.0317 c -0.43021,0.0195 -0.77092,0.0807 -1.0625,0.15875 -0.29159,0.0774 -0.54189,0.17664 -0.71875,0.31748 -0.17209,0.13596 -0.29852,0.30889 -0.375,0.50798 -0.0765,0.1942 -0.0937,0.41908 -0.0937,0.66672 0,0.44681 0.1143,0.77535 0.34375,0.98421 0.23422,0.20879 0.52862,0.31749 0.90625,0.31749 0.29158,0 0.56393,-0.035 0.8125,-0.12699 0.24856,-0.0923 0.4746,-0.25998 0.65625,-0.44449 0.18164,-0.18939 0.30586,-0.30758 0.40625,-0.58477 0.10516,-0.28208 0.15624,-0.71423 0.15625,-1.0979 z" style="fill:url(#a)"/></g></svg>