<svg xmlns="http://www.w3.org/2000/svg" width="16" height="16" version="1.1"><metadata/><title>Gnome Symbolic Icon Theme</title><g><g><path fill="ButtonText" d="m70 823c-3.866 0-7 3.134-7 7s3.134 7 7 7 7-3.134 7-7-3.134-7-7-7zm-0.09375 1.9688a1.0001 1.0001 0 0 1 1.094 1.03v5a1.0001 1.0001 0 1 1 -2 0v-5a1.0001 1.0001 0 0 1 0.78125 -1 1.0001 1.0001 0 0 1 0.125 -0.0313zm0.094 8.03c0.55228 0 1 0.44772 1 1s-0.44772 1-1 1-1-0.44772-1-1 0.44772-1 1-1z" transform="translate(-462 -382) translate(115.81 -581.18) translate(284.19 141.18)"/></g></g></svg>