<svg xmlns="http://www.w3.org/2000/svg" width="16" height="16" version="1.1"><metadata/><title>Gnome Symbolic Icon Theme</title><g fill="ButtonText"><path style="block-progression:tb;color:#000;text-transform:none;text-indent:0" d="m43.781 301a1.0001 1.0001 0 0 0 -0.40625 1.7812l5 4 0.625 0.5 0.625-0.5 5-4a1.0005 1.0005 0 1 0 -1.25 -1.5625l-4.375 3.5-4.375-3.5a1.0001 1.0001 0 0 0 -0.844 -0.22z" transform="translate(-41 -297)"/><path style="block-progression:tb;color:#000;text-transform:none;text-indent:0" d="m42.906 300a1.0001 1.0001 0 0 0 -0.906 1v9a1.0001 1.0001 0 0 0 1 1h12a1.0001 1.0001 0 0 0 1 -1v-9a1.0001 1.0001 0 0 0 -1 -1h-12a1.0001 1.0001 0 0 0 -0.09375 0zm1.094 2h10v7h-10v-7z" transform="translate(-41 -297)"/></g></svg>