<svg xmlns="http://www.w3.org/2000/svg" xmlns:svg="http://www.w3.org/2000/svg" id="svg6494" width="16" height="16" version="1.1"><metadata id="metadata6500"/><g id="g6502"><path style="color:#000;fill:ButtonText;fill-opacity:1;fill-rule:nonzero;stroke:none;stroke-width:4;marker:none;visibility:visible;display:inline;overflow:visible;enable-background:accumulate" id="rect6693" d="m 8,1 3,1 3,1 C 14,3 13.62433,4.11164 13.53125,4.46875 13.02647,6.40526 13.125,10 13.125,10 12.9988,11.00962 12.63066,11.22964 12,11.59375 L 8,14 3.9375,11.5625 C 3.30193,11.19555 2.99653,11.00351 2.875,10.03125 c 0,0 0.10204,-3.61396 -0.40625,-5.5625 C 2.3756,4.11166 2,3 2,3 L 5,2 z m 0,2 0,9 3.13258,-1.86742 c 0.21989,-0.1849 0.52065,-0.533 0.46875,-1 0.11541,-1.84232 0.015,-3.10551 0.41855,-4.59597 C 10.73248,3.8904933 9.3446931,3.5042599 8,3 z"/></g></svg>