<svg xmlns="http://www.w3.org/2000/svg" xmlns:svg="http://www.w3.org/2000/svg" id="svg6494" width="16" height="16" version="1.1"><metadata id="metadata6500"/><g id="g6502"><g id="g8561" transform="translate(21,-1)"><rect id="rect8514" width="16" height="16" x="-21" y="1" style="opacity:0;color:#000;fill:#fff;fill-opacity:1;fill-rule:evenodd;stroke:none;stroke-width:2;marker:none;visibility:visible;display:inline;overflow:visible;enable-background:accumulate"/><path id="rect7349" d="m -13,1 c 0,0 -2.7171,2.85889 -3.375,5.40625 C -17.03291,8.9536 -14,13 -14,13 l 2,0 c 0,0 3.0329,-4.0464 2.375,-6.59375 C -10.28291,3.85889 -13,1 -13,1 z m 0,2 0.99219,1 0.008,2 -2,0 0.008,-2 z" style="color:#000;fill:ButtonText;fill-opacity:1;fill-rule:evenodd;stroke:none;stroke-width:2;marker:none;visibility:visible;display:inline;overflow:visible;enable-background:accumulate"/><path id="rect8120" d="m -19,11 3,-4 2,3.6 -5,2.4 z" style="color:#000;fill:ButtonText;fill-opacity:1;fill-rule:evenodd;stroke:none;stroke-width:2;marker:none;visibility:visible;display:inline;overflow:visible;enable-background:accumulate"/><path style="color:#000;fill:ButtonText;fill-opacity:1;fill-rule:evenodd;stroke:none;stroke-width:2;marker:none;visibility:visible;display:inline;overflow:visible;enable-background:accumulate" id="use8125" d="m -7,11 -3,-4 -2,3.6 5,2.4 z"/><path id="path8129" d="m -14.01321,13 c 0,0 -1.2945,1.04296 -0.91819,1.97276 C -14.55518,15.90253 -13,17 -13,17 c 0,0 1.55518,-1.09747 1.9314,-2.02724 C -10.69229,14.04296 -11.98679,13 -11.98679,13 c 0,0 0.22576,0.24215 0,0.8 C -12.21253,14.35787 -13,14.6 -13,14.6 c 0,0 -0.78747,-0.24213 -1.01321,-0.8 -0.22576,-0.55785 0,-0.8 0,-0.8 z" style="color:#000;fill:ButtonText;fill-opacity:1;fill-rule:evenodd;stroke:none;stroke-width:2;marker:none;visibility:visible;display:inline;overflow:visible;enable-background:accumulate"/></g></g></svg>