<svg xmlns="http://www.w3.org/2000/svg" width="16" height="16" version="1.1"><metadata/><g fill="ButtonText"><path style="block-progression:tb;color:#000;enable-background:new;text-transform:none;text-indent:0" d="m2.7812 4.9995c-0.4471 0.1001-0.7922 0.5419-0.7812 1v1.7188c-0.0015 0.031-0.0015 0.063 0 0.094-0.02358 0.1235-0.02358 0.2515 0 0.375v4.8125c-0.0015 0.031-0.0015 0.063 0 0.094v0.906h9.9998v-0.844c0.004-0.052 0.004-0.104 0-0.156v-4.8437c0.004-0.052 0.004-0.1043 0-0.1563h-2v-2h-2v-1h-5c-0.0726-0.01-0.1461-0.01-0.2188 0zm6.2188 3v1.0018h1v3h-6v-4"/><path style="color:ButtonText" d="m11 0.9995h2v2h2v2h-2v2h-2v-2h-2v-2h2z"/></g></svg>