<svg xmlns="http://www.w3.org/2000/svg" xmlns:svg="http://www.w3.org/2000/svg" id="svg6494" width="16" height="16" version="1.1"><metadata id="metadata6500"/><g id="g6502"><g id="g6394" transform="translate(0,-1036.3622)"><g id="g7009"><rect id="rect6390" width="3" height="3" x="-739.89" y="743.961" rx="0" ry="0" transform="matrix(0.70710678,-0.70710678,0.70710678,0.70710678,0,0)" style="color:#000;fill:ButtonText;fill-opacity:1;fill-rule:nonzero;stroke:none;stroke-width:4;marker:none;visibility:visible;display:inline;overflow:visible;enable-background:accumulate"/><path style="color:#000;fill:#ef2929;fill-opacity:1;fill-rule:nonzero;stroke:none;stroke-width:4;marker:none;visibility:visible;display:inline;overflow:visible;enable-background:accumulate" id="path6373" d="m 12.14375,1038.3622 c -2.126295,0 -3.85,1.7236 -3.85,3.85 0,2.1264 1.723705,3.85 3.85,3.85 2.126296,0 3.85,-1.7236 3.85,-3.85 0,-2.1264 -1.723704,-3.85 -3.85,-3.85 z m -0.14375,1 1,0 0,5 -1,0 0,-4 -1,0 z"/><path id="path6388" d="M 3,3 C 1.892,3 1,3.892 1,5 l 0,6 c 0,1.108 0.892,2 2,2 l 10,0 c 1.108,0 2,-0.892 2,-2 l 0,-1 c -0.763974,0.442904 -1.649367,0.71609 -2.59375,0.78125 C 9.1478334,11.006073 7.0484532,8.5560396 7.21875,5.59375 7.2730803,4.6486818 7.5570959,3.763974 8,3 z" transform="translate(0,1036.3622)" style="color:#000;fill:ButtonText;fill-opacity:1;fill-rule:nonzero;stroke:none;stroke-width:4;marker:none;visibility:visible;display:inline;overflow:visible;enable-background:accumulate"/></g></g></g></svg>