<svg xmlns="http://www.w3.org/2000/svg" xmlns:svg="http://www.w3.org/2000/svg" id="svg2" width="16" height="16" version="1.1"><metadata id="metadata8"/><g id="g10"><path style="fill:#ef2929;fill-opacity:1;stroke:none" id="path3292" d="M 4 3 L 4 4 L 6 4 L 6 3 L 4 3 z M 10 3 L 10 4 L 12 4 L 12 3 L 10 3 z M 2 4 L 1 7 L 15 7 L 14 4 L 13 4 L 13 6 L 12 6 L 12 5 L 10 5 L 10 6 L 9 6 L 9 4 L 7 4 L 7 6 L 6 6 L 6 5 L 4 5 L 4 6 L 3 6 L 3 4 L 2 4 z M 1 8 L 1 14 L 15 14 L 15 8 L 1 8 z M 4 10 L 12 10 L 12 12 L 4 12 L 4 10 z"/></g></svg>