<svg xmlns="http://www.w3.org/2000/svg" width="16" height="16" version="1.1"><metadata/><title>Gnome Symbolic Icon Theme</title><g><g fill="ButtonText"><path d="m2 4c-0.5 0-1 0.5-1 1v4c0 0.5 0.5 1 1 1h1v-2h10v2h1c0.5 0 1-0.5 1-1v-4c0-0.5-0.5-1-1-1h-12z" transform="translate(-142,-338) translate(142,338)"/><path d="m4 1v2h8v-2h-8z" transform="translate(-142,-338) translate(142,338)"/><path d="m4 9v5h8v-5l-8 1e-7zm1 1h6v1h-6v-1zm0 2h5v1h-5v-1z" transform="translate(-142,-338) translate(142,338)"/></g></g></svg>