<svg xmlns="http://www.w3.org/2000/svg" xmlns:svg="http://www.w3.org/2000/svg" id="svg7361" width="16" height="16" version="1.1"><metadata id="metadata7363"/><title id="title7369">Gnome Symbolic Icon Theme</title><g id="g7371" transform="translate(-522,-176)"><g id="g7198" transform="translate(106,-508.3622)" style="fill:ButtonText;fill-opacity:1"><rect id="rect7196" width="16" height="16" x="672" y="32" transform="translate(-256,652.3622)" style="opacity:0;color:#000;fill:ButtonText;fill-opacity:1;fill-rule:nonzero;stroke:none;stroke-width:6;marker:none;visibility:visible;display:inline;overflow:visible;enable-background:accumulate"/><path style="fill:ButtonText;fill-opacity:1;stroke:none" id="path7204-9" d="m 416,688.3678 c 0,2 0,8 4.57143,8 2.28571,0 3.42857,-2 3.42857,-2 0,0 1.14286,2 3.42857,2 4.57143,0 4.57143,-6 4.57143,-8 -1.14286,1 -2.28571,1 -4.57143,1 -2.28571,0 -3.42857,2 -3.42857,2 0,0 -1.14286,-2 -3.42857,-2 -2.28572,0 -3.42857,0 -4.57143,-1 z m 4.03571,3.375 c 0.30032,-0.0177 0.61848,-0.0271 0.96429,0 0.90509,0.0718 1.07322,0.65413 2.25,1.21875 -1.34488,0.53143 -1.38473,0.6875 -2.67857,0.6875 -1.29384,0 -1.33369,-0.81231 -2.67857,-1.34375 0.53845,-0.25795 1.24191,-0.5079 2.14285,-0.5625 z m 6.96429,0 c 0.34581,-0.0271 0.66397,-0.0177 0.96429,0 0.90094,0.0546 1.6044,0.30455 2.14285,0.5625 -1.34488,0.53144 -1.38473,1.34375 -2.67857,1.34375 -1.29384,0 -1.33369,-0.15607 -2.67857,-0.6875 1.17678,-0.56462 1.34491,-1.14695 2.25,-1.21875 z"/></g></g></svg>