<svg xmlns="http://www.w3.org/2000/svg" xmlns:svg="http://www.w3.org/2000/svg" id="svg2" width="16" height="16" version="1.1"><title id="title8">Gnome Symbolic Icon Theme</title><metadata id="metadata10"/><g id="g12" transform="translate(-260.00005,-517.99)" style="fill:ButtonText"><path style="text-indent:0;text-transform:none;color:ButtonText" id="path14" d="m 265,519 -0.3125,0.28125 -3.4062,3.375 -0.28125,0.3125 v 5 l 0.28125,0.3125 3.4062,3.4375 0.31,0.27 h 5.0313 l 0.28125,-0.28125 3.4062,-3.4375 0.28125,-0.3125 v -5 l -0.28125,-0.3125 -3.4062,-3.375 -0.31,-0.28 h -5.0038 z m 0.8125,2 h 3.375 L 272,523.8125 v 3.3438 l -2.8438,2.8438 h -3.3125 l -2.84,-2.83 v -3.35 l 2.81,-2.81 z"/><path style="color:ButtonText" id="path16" d="m 266.17,522 -2.17,2.15 v 2.6707 l 2.1656,2.1835 h 2.6707 l 2.1636,-2.1835 V 524.15 l -2.1636,-2.1457 h -2.6707 z"/></g></svg>