<svg xmlns="http://www.w3.org/2000/svg" width="16.05" height="16.062" version="1.1"><metadata/><title>Gnome Symbolic Icon Theme</title><g><g fill="ButtonText"><path style="block-progression:tb;color:#000;text-transform:none;text-indent:0" d="m78.094 973.36c0-2.965 2.1652-5.4314 5-5.9062l0 2.0625c -1.7288 0.44228-3 1.9706-3 3.8438 0 1.8732 1.2712 3.4015 3 3.8438l0 2.0625c-2.8348-0.47482-5-2.9413-5-5.9062zm7-5.9062c2.8348 0.47482 5 2.9413 5 5.9062 0 2.965-2.1652 5.4314-5 5.9062l0-2.0625c1.7288-0.44228 3-1.9706 3-3.8438 0-1.8732-1.2712-3.4015-3-3.8438l0-2.0625z" transform="translate(-501.95 -381.94) translate(425.86 -583.36)"/><path d="m85.094 967.36 0 5 5-5z" transform="translate(-501.95 -381.94) translate(425.86 -583.36)"/><path d="m83.094 979.36 0-5-5 5z" transform="translate(-501.95 -381.94) translate(425.86 -583.36)"/></g></g></svg>