<svg xmlns="http://www.w3.org/2000/svg" width="16" height="16" version="1.1"><defs><clipPath id="a" clipPathUnits="userSpaceOnUse"><rect style="color:#000" width="19.273" height="19.273" x="4.363" y="-7.637" fill="#eeeeec" fill-rule="evenodd"/></clipPath></defs><metadata/><g><circle cx="68" cy="189" r="24" fill="ButtonText" transform="matrix(.083333 0 0 .083333 -1.6667 -3.75)"/><path style="color:#000" fill="ButtonText" fill-rule="evenodd" d="m14 10.948c0 4.9421-4.0063 8.9484-8.9484 8.9484s-8.9484-4.0063-8.9484-8.9484c0.0002-4.9417 4.0066-8.948 8.9486-8.948 4.9421 0 8.9484 4.0063 8.9484 8.948zm2.7534 0.000001c0 6.4627-5.239 11.702-11.702 11.702-6.4627 0-11.702-5.239-11.702-11.702 0-6.4627 5.239-11.702 11.702-11.702 6.4627 0 11.702 5.239 11.702 11.702zm2.7534-0.000001c0 7.9833-6.4718 14.455-14.455 14.455-7.9833 0-14.455-6.4718-14.455-14.455 0-7.9833 6.4718-14.455 14.455-14.455 7.9833 0 14.455 6.4718 14.455 14.455zm2.7534 0.000001c0 9.504-7.7045 17.208-17.208 17.208-9.504 0-17.208-7.7045-17.208-17.208 0-9.504 7.7045-17.208 17.208-17.208 9.504 0 17.208 7.7045 17.208 17.208z" clip-path="url(#a)" transform="matrix(.72639 0 0 .72639 -1.1694 5.5472)"/></g></svg>