<svg xmlns="http://www.w3.org/2000/svg" xmlns:svg="http://www.w3.org/2000/svg" id="svg7384" width="16" height="16" version="1.1"><metadata id="metadata90"/><title id="title9167">Gnome Symbolic Icon Theme</title><g id="layer13" transform="translate(-501.0002,-195)"><path style="opacity:1;fill:ButtonText;fill-opacity:1;stroke:none;stroke-width:12.03663445;stroke-linecap:round;stroke-linejoin:round;stroke-miterlimit:4;stroke-dasharray:none;stroke-opacity:1" id="path8621" d="M 12.5 1 A 3.5000079 3.5000079 0 0 0 9 4.5 A 3.5000079 3.5000079 0 0 0 12.5 8 A 3.5000079 3.5000079 0 0 0 16 4.5 A 3.5000079 3.5000079 0 0 0 12.5 1 z M 12.007812 2.4863281 L 13.005859 2.4902344 L 13.005859 3.9941406 L 14.515625 3.9902344 L 14.509766 4.9960938 L 13 5 L 13.005859 6.5019531 L 12.007812 6.5 L 12.001953 4.9960938 L 10.498047 4.9960938 L 10.503906 3.9902344 L 12.007812 3.9902344 L 12.007812 2.4863281 z" transform="translate(501.0002,195)"/><g id="g7971" transform="translate(-250.98854,-537.3674)"><g id="g2204" transform="translate(611.9998,86.3622)" style="display:inline"><path style="color:#000;display:inline;overflow:visible;visibility:visible;fill:none;stroke:ButtonText;stroke-width:2;stroke-linecap:round;stroke-linejoin:round;stroke-miterlimit:4;stroke-dasharray:none;stroke-dashoffset:0;stroke-opacity:1;marker:none;enable-background:new" id="path27918" d="m 149.67055,655.68198 a 4.5051188,4.5 0 0 1 -5.76963,0.5042 4.5051188,4.5 0 0 1 -1.49899,-5.58796 4.5051188,4.5 0 0 1 5.24904,-2.44489"/><path style="color:#000;display:inline;overflow:visible;visibility:visible;fill:none;stroke:ButtonText;stroke-width:2;stroke-linecap:round;stroke-linejoin:round;stroke-miterlimit:4;stroke-dasharray:none;stroke-dashoffset:0;stroke-opacity:1;marker:none;enable-background:new" id="path27941" d="m 149.98894,656.00001 4.00455,4"/><rect id="rect1431" width="16" height="16" x="140" y="646" style="color:#000;display:inline;overflow:visible;visibility:visible;opacity:.70638272;fill:none;stroke:none;stroke-width:2;marker:none;enable-background:accumulate"/></g></g></g></svg>