<svg xmlns="http://www.w3.org/2000/svg" width="16" height="16" version="1.1"><metadata/><title>Gnome Symbolic Icon Theme</title><g fill="ButtonText"><path style="color:ButtonText" d="m184 244c-0.554 0-1 0.446-1 1v6h12v-5.9988c0-0.554-0.446-1-1-1h-10z" transform="translate(-181 -237)"/><path style="block-progression:tb;color:ButtonText;text-transform:none;text-indent:0" d="m188 238c-1.6447 0-3 1.3553-3 3v7c0 1.6447 1.3553 3 3 3h2c1.6447 0 3-1.3553 3-3v-7c0-1.6447-1.3553-3-3-3h-2zm0 2h2c0.5713 0 1 0.4287 1 1v7c0 0.5713-0.4287 1-1 1h-2c-0.5713 0-1-0.4287-1-1v-7c0-0.5713 0.4287-1 1-1z" transform="translate(-181 -237)"/></g></svg>