<svg xmlns="http://www.w3.org/2000/svg" xmlns:svg="http://www.w3.org/2000/svg" id="svg6651" width="16" height="16" version="1.1"><metadata id="metadata6653"/><title id="title6659">Gnome Symbolic Icon Theme</title><g id="g6661" fill="ButtonText" transform="translate(-101 -647)"><g id="g7977" transform="translate(-555,-85.3622)"><rect id="rect7354" width="16" height="16" x="912" y="80" transform="translate(-256,652.3622)" style="opacity:0;color:#000;fill:#fafaf7;fill-opacity:1;fill-rule:nonzero;stroke:none;stroke-width:4;marker:none;visibility:visible;display:inline;overflow:visible;enable-background:accumulate"/><path id="rect7356" d="m 912,81 0,13 16,0 0,-13 z m 7,1 1,0 0,1 -1,0 z m 2,0 1,0 0,1 -1,0 z m 2,0 3,0 0,1 -3,0 z m -9,2 7,0 0,8 -7,0 z m 9,0 3,0 0,8 -3,0 z" transform="translate(-256,652.3622)" style="color:#000;fill:ButtonText;fill-opacity:1;fill-rule:nonzero;stroke:none;stroke-width:4;marker:none;visibility:visible;display:inline;overflow:visible;enable-background:accumulate"/></g></g></svg>