<svg xmlns="http://www.w3.org/2000/svg" width="16" height="16" version="1.1"><metadata/><g><path fill="ButtonText" d="m2.9062 1c-1.0566 0-1.9062 0.892-1.9062 2v10c0 1.108 0.84957 2 1.9062 2h10.188c1.056 0 1.906-0.892 1.906-2v-10c0-1.108-0.85-2-1.906-2zm2.0938 1.3125h1v0.6875h3v2h-1v-1h-5v1h-1v-2h3zm-1 2.6875h3v1l-1 1h2v1h-2v0.3125c0 1.6875-1 1.6875-1 1.6875-1 0-0.7449 0.01-1 0v-1h0.625s0.375 0 0.375-1h-2v-1h2v-0.5h0.1875l0.8125-0.5h-2zm6 2h2l2 7h-1.4688l-0.5-2h-2.031l-0.5625 2h-1.4375zm0.542 1.9984-0.542 2.0016h2l-0.472-2zm-7.542 2.0016h1v1h0.2188 1.1562l-0.3125-0.344c-0.15036-0.156-0.15321-0.37804 0-0.53125s0.4093-0.15321 0.5625 0l1.375 1.375-1.375 1.406c-0.15321 0.15321-0.4093 0.15321-0.5625 0-0.1532-0.1532-0.15072-0.40684 0-0.5625l0.3125-0.344h-1.125-0.25c-1 0-1-1-1-1z"/><rect width="16" height="16" x="-15" y="10" fill="none"/></g></svg>