<svg xmlns="http://www.w3.org/2000/svg" xmlns:svg="http://www.w3.org/2000/svg" id="svg7384" width="16.013" height="16" version="1.1"><metadata id="metadata90"/><title id="title9167">Gnome Symbolic Icon Theme</title><g id="layer12" transform="translate(-44.993672,-949.00003)" style="display:inline"><g id="g5273" transform="matrix(1,0,0,0.99999871,-112.37982,189.09791)"><title id="title5275">go-home</title></g><path id="path5287" d="M 47.78125,954 A 1.0001,1.0001 0 0 0 47,955 l 0,7 a 1.0001,1.0001 0 0 0 1,1 l 10,0 a 1.0001,1.0001 0 0 0 1,-1 l 0,-7 a 1.0001,1.0001 0 1 0 -2,0 l 0,6 -8,0 0,-6 a 1.0001,1.0001 0 0 0 -1.21875,-1 z" style="font-size:medium;font-style:normal;font-variant:normal;font-weight:400;font-stretch:normal;text-indent:0;text-align:start;text-decoration:none;line-height:normal;letter-spacing:normal;word-spacing:normal;text-transform:none;direction:ltr;block-progression:tb;writing-mode:lr-tb;text-anchor:start;baseline-shift:baseline;color:#000;fill:ButtonText;fill-opacity:1;stroke:none;stroke-width:2;marker:none;visibility:visible;display:inline;overflow:visible;enable-background:accumulate;font-family:Sans;-inkscape-font-specification:Sans"/><path id="path5289" d="m 52.90625,950 a 1.0001,1.0001 0 0 0 -0.5,0.1875 l -7,5 a 1.0063276,1.0063276 0 1 0 1.1875,1.625 L 53,952.25 l 6.40625,4.5625 a 1.0063276,1.0063276 0 1 0 1.1875,-1.625 l -7,-5 A 1.0001,1.0001 0 0 0 52.90625,950 z" style="font-size:medium;font-style:normal;font-variant:normal;font-weight:400;font-stretch:normal;text-indent:0;text-align:start;text-decoration:none;line-height:normal;letter-spacing:normal;word-spacing:normal;text-transform:none;direction:ltr;block-progression:tb;writing-mode:lr-tb;text-anchor:start;baseline-shift:baseline;color:#000;fill:ButtonText;fill-opacity:1;stroke:none;stroke-width:2;marker:none;visibility:visible;display:inline;overflow:visible;enable-background:accumulate;font-family:Sans;-inkscape-font-specification:Sans"/><rect id="rect5291" width="3" height="6" x="51" y="957" style="color:ButtonText;fill:ButtonText;fill-opacity:1;fill-rule:nonzero;stroke:none;stroke-width:2;marker:none;visibility:visible;display:inline;overflow:visible;enable-background:accumulate"/><rect id="rect5293" width="1" height="1" x="-61" y="956" rx="0" ry="1" transform="scale(-1,1)" style="fill:ButtonText;fill-opacity:1;stroke:none;display:inline"/><rect id="rect5295" width="1" height="1" x="-46" y="956" rx="0" ry="1" transform="scale(-1,1)" style="fill:ButtonText;fill-opacity:1;stroke:none;display:inline"/></g></svg>