<svg xmlns="http://www.w3.org/2000/svg" xmlns:svg="http://www.w3.org/2000/svg" id="svg7384" width="16" height="16" version="1.1"><metadata id="metadata90"/><title id="title9167">Gnome Symbolic Icon Theme</title><g id="layer13" transform="translate(-482,-176)"><g id="layer1-7" transform="translate(482,176)" style="display:inline"><path id="path2930-9" d="m 4,2 0,-0.96875 7,0 L 11,2 4,2 z M 3.46875,0.03125 C 2.978423,0.03125 2.672682,0.2597 2.4375,0.5 2.202318,0.7403 2,1.05851 2,1.53125 L 2,2 0,2 0,4 15,4 15,2 13,2 13,1.65625 13,1.62495 C 12.97607,1.19435 12.829764,0.87266 12.59375,0.5937 12.370016,0.32926 11.967063,0.06439 11.4375,0.06245 l 0,-0.0313 -0.0625,0 -7.90625,0 0,10e-5 z M 12,5 l 2,0 0,8.78125 C 14,14.98205 13.01762,16 11.8125,16 l -8.625,0 C 1.98238,16 1,14.98205 1,13.78125 L 1,5 l 2,0 0,9 9,0 0,-9 z m -4.96875,1 0,7 L 8,13 8,6 7.03125,6 z M 8.96875,6 8.93755,13 9.9688,13 10,6 8.96875,6 z m -3.9375,0 0,7 L 6,13 6,6 5.03125,6 z" style="font-size:medium;font-style:normal;font-variant:normal;font-weight:400;font-stretch:normal;text-indent:0;text-align:start;text-decoration:none;line-height:normal;letter-spacing:normal;word-spacing:normal;text-transform:none;direction:ltr;text-anchor:start;color:ButtonText;fill:ButtonText;fill-opacity:1;stroke:none;stroke-width:2;marker:none;visibility:visible;display:inline;overflow:visible;font-family:Bitstream Vera Sans"/></g></g></svg>