<svg xmlns="http://www.w3.org/2000/svg" width="16" height="16" version="1.1"><title>Gnome Symbolic Icon Theme</title><metadata/><g><g fill="ButtonText"><g><path d="m9 1038.4c-0.55228 0-1 0.4477-1 1s0.44772 1 1 1h1.5625l-2.2812 2.2813 1.4375 1.4062 2.2812-2.2812v1.5937c0 0.5523 0.44772 1 1 1s1-0.4477 1-1v-5h-5z" transform="translate(-40.984 -647.02) translate(40.988 -389.34) matrix(-1 0 0 -1 22 2082.7)"/><path d="m9.7174 1044c-0.38695 0.3941-1.0201 0.3999-1.4142 0.013-0.39407-0.3869-0.39983-1.0201-0.012885-1.4141l0.71352 0.7005z" transform="translate(-40.984 -647.02) translate(40.988 -389.34) matrix(-1 0 0 -1 22 2082.7)"/></g><g><path d="m3 1044.4c-0.55228 0-1 0.4477-1 1v5h5c0.55228 0 1-0.4477 1-1s-0.44772-1-1-1h-1.5938l2.3125-2.3125-0.7187-0.7-0.7188-0.8-2.2812 2.3v-1.5625c0-0.5523-0.44772-1-1-1z" transform="translate(-40.984 -647.02) translate(40.988 -389.34) matrix(-1 0 0 -1 10 2094.7)"/><path d="m6.2748 1044.7c0.38695-0.3941 1.0201-0.3999 1.4142-0.013 0.39407 0.3869 0.39983 1.0201 0.012885 1.4141l-0.71352-0.7005z" transform="translate(-40.984 -647.02) translate(40.988 -389.34) matrix(-1 0 0 -1 10 2094.7)"/></g></g></g></svg>