<svg xmlns="http://www.w3.org/2000/svg" xmlns:svg="http://www.w3.org/2000/svg" id="svg8335" width="16" height="16" version="1.1"><metadata id="metadata8337"/><title id="title8343">Gnome Symbolic Icon Theme</title><g id="g8345" fill="ButtonText" transform="translate(-40.984 -647.02)"><g id="g8369" transform="translate(40.984 -389.35)"><path id="path8371" d="m9 2c-0.5523 0-1 0.4477-1 1s0.4477 1 1 1h1.562l-2.2808 2.2812 1.4376 1.4063 2.2812-2.2813v1.5938c0 0.55228 0.44772 1 1 1s1-0.44772 1-1v-5h-5z" transform="translate(0 1036.4)"/><path id="path8373" d="m3 8c-0.5523 0-1 0.4477-1 1v5h5c0.5523 0 1-0.448 1-1s-0.4477-1-1-1h-1.5938l2.3126-2.3125-0.7188-0.6875-0.7188-0.7188-2.2812 2.2808v-1.562c0-0.5523-0.4477-1-1-1z" transform="translate(0 1036.4)"/><path id="path8375" d="m 9.7188,1044.0875 c -0.38695,0.3941 -1.0253351,0.383 -1.4194351,-0 -0.39407,-0.3869 -0.39983,-1.0201 -0.012885,-1.4141 l 0.71352,0.7005 z"/><path id="path8377" d="m6.2748 1044.7c0.38695-0.3941 1.0201-0.3999 1.4142-0.013 0.39407 0.3869 0.39983 1.0201 0.012885 1.4141l-0.71352-0.7005z"/></g></g></svg>