<svg xmlns="http://www.w3.org/2000/svg" xmlns:svg="http://www.w3.org/2000/svg" id="svg2" width="100%" height="100%" version="1.1" viewBox="0 0 96 16"><title id="title4">Gnome Symbolic Icon Theme</title><metadata id="metadata6"/><g id="g8" fill="#888a85" transform="translate(-60,-518)"><g id="g10" fill="#888a85" transform="translate(19,-242)"><path style="color:#2e3436;text-transform:none;text-indent:0" id="path12" fill="#888a85" d="m45,764h1c0.01037-0.00012,0.02079-0.00046,0.03125,0,0.25495,0.0112,0.50987,0.12858,0.6875,0.3125l2.281,2.28,2.312-2.28c0.266-0.23,0.447-0.3,0.688-0.31h1v1c0,0.28647-0.03434,0.55065-0.25,0.75l-2.2812,2.2812,2.25,2.25c0.188,0.19,0.281,0.45,0.281,0.72v1h-1c-0.2653-0.00001-0.53059-0.0931-0.71875-0.28125l-2.281-2.28-2.281,2.28c-0.188,0.19-0.454,0.28-0.719,0.28h-1v-1c-0.000003-0.26529,0.09306-0.53058,0.28125-0.71875l2.2812-2.25-2.281-2.28c-0.21-0.19-0.303-0.47-0.281-0.75v-1z"/></g></g><path id="path14" fill="#babdb6" d="M16,8a8,8,0,1,1,-16,0,8,8,0,1,1,16,0z" transform="translate(16.001577,-0.00173309)"/><g id="g16" fill="#FFF" transform="translate(-43.998423,-518.00173)"><g id="g18" fill="#FFF" transform="translate(19,-242)"><path style="color:#2e3436;text-transform:none;text-indent:0" id="path20" fill="#FFF" d="m45,764h1c0.01037-0.00012,0.02079-0.00046,0.03125,0,0.25495,0.0112,0.50987,0.12858,0.6875,0.3125l2.281,2.28,2.312-2.28c0.266-0.23,0.447-0.3,0.688-0.31h1v1c0,0.28647-0.03434,0.55065-0.25,0.75l-2.2812,2.2812,2.25,2.25c0.188,0.19,0.281,0.45,0.281,0.72v1h-1c-0.2653-0.00001-0.53059-0.0931-0.71875-0.28125l-2.281-2.28-2.281,2.28c-0.188,0.19-0.454,0.28-0.719,0.28h-1v-1c-0.000003-0.26529,0.09306-0.53058,0.28125-0.71875l2.2812-2.25-2.281-2.28c-0.21-0.19-0.303-0.47-0.281-0.75v-1z"/></g></g><path id="path22" fill="#888a85" d="M16,8a8,8,0,1,1,-16,0,8,8,0,1,1,16,0z" transform="translate(32.001577,-0.00173609)"/><g id="g24" fill="#FFF" transform="translate(-27.998423,-518.00173)"><g id="g26" fill="#FFF" transform="translate(19,-242)"><path style="color:#2e3436;text-transform:none;text-indent:0" id="path28" fill="#FFF" d="m45,764h1c0.01037-0.00012,0.02079-0.00046,0.03125,0,0.25495,0.0112,0.50987,0.12858,0.6875,0.3125l2.281,2.28,2.312-2.28c0.266-0.23,0.447-0.3,0.688-0.31h1v1c0,0.28647-0.03434,0.55065-0.25,0.75l-2.2812,2.2812,2.25,2.25c0.188,0.19,0.281,0.45,0.281,0.72v1h-1c-0.2653-0.00001-0.53059-0.0931-0.71875-0.28125l-2.281-2.28-2.281,2.28c-0.188,0.19-0.454,0.28-0.719,0.28h-1v-1c-0.000003-0.26529,0.09306-0.53058,0.28125-0.71875l2.2812-2.25-2.281-2.28c-0.21-0.19-0.303-0.47-0.281-0.75v-1z"/></g></g><g id="g30" fill="#FFF" transform="translate(-11.998423,-518.00173)"><g id="g32" fill="#FFF" transform="translate(19,-242)"><path style="color:#2e3436;text-transform:none;text-indent:0" id="path34" fill="#FFF" d="m45,764h1c0.01037-0.00012,0.02079-0.00046,0.03125,0,0.25495,0.0112,0.50987,0.12858,0.6875,0.3125l2.281,2.28,2.312-2.28c0.266-0.23,0.447-0.3,0.688-0.31h1v1c0,0.28647-0.03434,0.55065-0.25,0.75l-2.2812,2.2812,2.25,2.25c0.188,0.19,0.281,0.45,0.281,0.72v1h-1c-0.2653-0.00001-0.53059-0.0931-0.71875-0.28125l-2.281-2.28-2.281,2.28c-0.188,0.19-0.454,0.28-0.719,0.28h-1v-1c-0.000003-0.26529,0.09306-0.53058,0.28125-0.71875l2.2812-2.25-2.281-2.28c-0.21-0.19-0.303-0.47-0.281-0.75v-1z"/></g></g><g id="g36" fill="#FFF" opacity=".8" transform="translate(4.0015774,-518.00173)"><g id="g38" fill="#FFF" transform="translate(19,-242)"><path style="color:#2e3436;text-transform:none;text-indent:0" id="path40" fill="#FFF" d="m45,764h1c0.01037-0.00012,0.02079-0.00046,0.03125,0,0.25495,0.0112,0.50987,0.12858,0.6875,0.3125l2.281,2.28,2.312-2.28c0.266-0.23,0.447-0.3,0.688-0.31h1v1c0,0.28647-0.03434,0.55065-0.25,0.75l-2.2812,2.2812,2.25,2.25c0.188,0.19,0.281,0.45,0.281,0.72v1h-1c-0.2653-0.00001-0.53059-0.0931-0.71875-0.28125l-2.281-2.28-2.281,2.28c-0.188,0.19-0.454,0.28-0.719,0.28h-1v-1c-0.000003-0.26529,0.09306-0.53058,0.28125-0.71875l2.2812-2.25-2.281-2.28c-0.21-0.19-0.303-0.47-0.281-0.75v-1z"/></g></g><g id="g42" fill="#000" opacity=".8" transform="translate(20.001577,-518.00173)"><g id="g44" fill="#000" transform="translate(19,-242)"><path style="color:#2e3436;text-transform:none;text-indent:0" id="path46" fill="#000" d="m45,764h1c0.01037-0.00012,0.02079-0.00046,0.03125,0,0.25495,0.0112,0.50987,0.12858,0.6875,0.3125l2.281,2.28,2.312-2.28c0.266-0.23,0.447-0.3,0.688-0.31h1v1c0,0.28647-0.03434,0.55065-0.25,0.75l-2.2812,2.2812,2.25,2.25c0.188,0.19,0.281,0.45,0.281,0.72v1h-1c-0.2653-0.00001-0.53059-0.0931-0.71875-0.28125l-2.281-2.28-2.281,2.28c-0.188,0.19-0.454,0.28-0.719,0.28h-1v-1c-0.000003-0.26529,0.09306-0.53058,0.28125-0.71875l2.2812-2.25-2.281-2.28c-0.21-0.19-0.303-0.47-0.281-0.75v-1z"/></g></g></svg>