<svg xmlns="http://www.w3.org/2000/svg" xmlns:svg="http://www.w3.org/2000/svg" xmlns:xlink="http://www.w3.org/1999/xlink" id="svg3779" width="98" height="28" version="1.1"><defs id="defs3781"><linearGradient id="linearGradient3905"><stop style="stop-color:#e6e6e6;stop-opacity:1" id="stop3907" offset="0"/><stop style="stop-color:#bcbebc;stop-opacity:1" id="stop3909" offset="1"/></linearGradient><linearGradient id="linearGradient3911" x1="134.434" x2="134.434" y1="86.035" y2="107.537" gradientUnits="userSpaceOnUse" xlink:href="#linearGradient3905"/><linearGradient id="linearGradient3905-4"><stop style="stop-color:#e6e6e6;stop-opacity:1" id="stop3907-5" offset="0"/><stop style="stop-color:#cbcbcb;stop-opacity:1" id="stop3909-4" offset="1"/></linearGradient><linearGradient id="linearGradient6988" x1="134.434" x2="134.434" y1="86.66" y2="107.537" gradientTransform="matrix(1,0,0,0.83962264,0,13.798088)" gradientUnits="userSpaceOnUse" xlink:href="#linearGradient3905-4"/><linearGradient id="linearGradient5496" x1="158.448" x2="158.448" y1="86.378" y2="87.999" gradientTransform="translate(-82.433609,-82.03125)" gradientUnits="userSpaceOnUse" xlink:href="#linearGradient5500"/><linearGradient id="linearGradient5500"><stop id="stop5502" offset="0" style="stop-color:#b6eb83;stop-opacity:1"/><stop style="stop-color:#95d754;stop-opacity:1" id="stop5504" offset=".95"/><stop id="stop5506" offset="1" style="stop-color:#b6eb83;stop-opacity:0"/></linearGradient><linearGradient id="linearGradient5498" x1="123.219" x2="123.219" y1="85.134" y2="88.968" gradientTransform="translate(-82.433609,-82.03125)" gradientUnits="userSpaceOnUse" xlink:href="#linearGradient5508"/><linearGradient id="linearGradient5508"><stop id="stop5510" offset="0" style="stop-color:#b6eb83;stop-opacity:.38916257"/><stop style="stop-color:#98e350;stop-opacity:1" id="stop5512" offset=".95"/><stop id="stop5514" offset="1" style="stop-color:#b6eb83;stop-opacity:0"/></linearGradient><linearGradient id="linearGradient3887" x1="158.448" x2="158.448" y1="86.378" y2="87.999" gradientTransform="translate(0.125,-0.499999)" gradientUnits="userSpaceOnUse" xlink:href="#linearGradient5500"/><linearGradient id="linearGradient3889" x1="123.219" x2="123.219" y1="85.134" y2="88.968" gradientTransform="translate(0.125,-0.499999)" gradientUnits="userSpaceOnUse" xlink:href="#linearGradient5508"/></defs><metadata id="metadata3784"/><g id="layer1" transform="translate(-82.433609,-81.035141)"><path style="fill:#f2f2f2;fill-opacity:1;stroke:none;enable-background:new" id="path13726" d="m 82.933609,111.03514 3,-23.924688 c 0.4381,-1.926313 1.7883,-2.575312 3.3125,-2.575312 l 84.375001,0 c 1.5242,0 2.8744,0.648999 3.3125,2.575312 l 3,23.924688"/><path style="fill:url(#linearGradient6988);fill-opacity:1;stroke:none;enable-background:new" id="path13726-1-6" d="m 82.933609,108.28514 3,-20.08771 c 0.4381,-1.617376 1.7883,-2.16229 3.3125,-2.16229 l 84.375001,0 c 1.5242,0 2.8744,0.544914 3.3125,2.16229 l 3,20.08771"/><rect style="color:#000;fill:#a7a7a7;fill-opacity:1;fill-rule:nonzero;stroke:none;stroke-width:2;marker:none;visibility:visible;display:inline;overflow:visible;enable-background:accumulate" id="rect3900" width="98" height="1" x="82.434" y="108.035"/><path style="fill:none;stroke:#a7aba7;stroke-width:.99999994;stroke-linecap:round;stroke-linejoin:round;stroke-miterlimit:4;stroke-opacity:1;stroke-dasharray:none;stroke-dashoffset:0;enable-background:new" id="path13726-4" d="m 82.933609,111.03514 3,-23.924688 c 0.4381,-1.926313 1.7883,-2.575312 3.3125,-2.575312 l 84.375001,0 c 1.5242,0 2.8744,0.648999 3.3125,2.575312 l 3,23.924688"/><path style="opacity:.5;fill:url(#linearGradient3887);fill-opacity:1;stroke:url(#linearGradient3889);stroke-width:.99999994;stroke-linecap:round;stroke-linejoin:round;stroke-miterlimit:4;stroke-opacity:1;stroke-dasharray:none;stroke-dashoffset:0;enable-background:new" id="path13726-5-2" d="m 179.05861,110.53514 -3,-23.499998 c -0.4381,-1.926313 -1.7883,-2.000001 -3.3125,-2.000001 l -82.375001,0 c -1.5242,0 -2.8744,0.07369 -3.3125,2.000001 l -3,23.499998" clip-path="none" mask="none"/></g></svg>