<svg xmlns="http://www.w3.org/2000/svg" xmlns:svg="http://www.w3.org/2000/svg" xmlns:xlink="http://www.w3.org/1999/xlink" id="svg3779" width="98" height="28" version="1.1"><defs id="defs3781"><linearGradient id="linearGradient3905"><stop style="stop-color:#e6e6e6;stop-opacity:1" id="stop3907" offset="0"/><stop style="stop-color:#bcbebc;stop-opacity:1" id="stop3909" offset="1"/></linearGradient><linearGradient id="linearGradient3911" x1="134.434" x2="134.434" y1="86.035" y2="107.537" gradientUnits="userSpaceOnUse" xlink:href="#linearGradient3905"/><linearGradient id="linearGradient3905-4"><stop style="stop-color:#e6e6e6;stop-opacity:1" id="stop3907-5" offset="0"/><stop style="stop-color:#d0d0d0;stop-opacity:1" id="stop3909-4" offset="1"/></linearGradient><linearGradient id="linearGradient6988" x1="134.434" x2="134.434" y1="86.66" y2="107.537" gradientUnits="userSpaceOnUse" xlink:href="#linearGradient3905-4"/><linearGradient id="linearGradient3086" x1="134.434" x2="134.434" y1="86.66" y2="107.537" gradientUnits="userSpaceOnUse" xlink:href="#linearGradient3905-4"/><linearGradient id="linearGradient3196" x1="134.434" x2="134.434" y1="86.66" y2="107.537" gradientTransform="matrix(1,0,0,0.83962264,-78.223822,-65.468442)" gradientUnits="userSpaceOnUse" xlink:href="#linearGradient3905-4-1"/><linearGradient id="linearGradient3905-4-1"><stop style="stop-color:#e6e6e6;stop-opacity:1" id="stop3907-5-6" offset="0"/><stop style="stop-color:#cbcbcb;stop-opacity:1" id="stop3909-4-9" offset="1"/></linearGradient></defs><metadata id="metadata3784"/><g id="layer1" transform="translate(-82.433609,-81.035141)"><rect style="color:#000;fill:#a7a7a7;fill-opacity:1;fill-rule:nonzero;stroke:none;stroke-width:2;marker:none;visibility:visible;display:inline;overflow:visible;enable-background:accumulate" id="rect3900" width="98" height="1" x="82.434" y="108.035"/><g id="g3190" transform="translate(78.223822,79.266531)"><path id="path13726-6" d="m 4.7097844,31.76861 3,-23.9246884 c 0.4381,-1.926313 1.7883,-2.575312 3.3124996,-2.575312 l 84.375001,0 c 1.5242,0 2.8744,0.648999 3.3125,2.575312 L 101.70979,31.76861" style="fill:#f2f2f2;fill-opacity:1;stroke:none;enable-background:new"/><path id="path13726-1-6-2" d="m 4.7097844,29.01861 3,-20.08771 c 0.4381,-1.6173764 1.7883,-2.1622904 3.3124996,-2.1622904 l 84.375001,0 c 1.5242,0 2.8744,0.544914 3.3125,2.1622904 l 3.000005,20.08771" style="fill:url(#linearGradient3196);fill-opacity:1;stroke:none;enable-background:new"/><rect id="rect3900-5" width="98" height="1" x="4.21" y="28.769" style="color:#000;fill:#a7a7a7;fill-opacity:1;fill-rule:nonzero;stroke:none;stroke-width:2;marker:none;visibility:visible;display:inline;overflow:visible;enable-background:accumulate"/><path id="path13726-4-9" d="m 4.7097844,31.76861 3,-23.9246884 c 0.4381,-1.926313 1.7883,-2.575312 3.3124996,-2.575312 l 84.375001,0 c 1.5242,0 2.8744,0.648999 3.3125,2.575312 L 101.70979,31.76861" style="fill:none;stroke:#a7aba7;stroke-width:.99999994;stroke-linecap:round;stroke-linejoin:round;stroke-miterlimit:4;stroke-opacity:1;stroke-dasharray:none;stroke-dashoffset:0;enable-background:new"/></g></g></svg>