<svg xmlns="http://www.w3.org/2000/svg" version="1.1" viewBox="0 0 16 16"><metadata/><g><g fill="#2e3436"><path d="m11.462,2.5c0,1.6361-1.3263,2.9624-2.9624,2.9624s-2.9624-1.3263-2.9624-2.9624,1.3263-2.9625,2.9624-2.9625,2.9624,1.3263,2.9624,2.9625z" transform="translate(0,-1036.3622) translate(-16.00003,1.9107285e-4) matrix(0,-0.55697142,0.55697142,0,22.6076,1042.7465)"/><path d="m11.462,2.5c0,1.6361-1.3263,2.9624-2.9624,2.9624s-2.9624-1.3263-2.9624-2.9624,1.3263-2.9625,2.9624-2.9625,2.9624,1.3263,2.9624,2.9625z" opacity=".125" transform="translate(0,-1036.3622) translate(-16.00003,1.9107285e-4) matrix(0.39383827,-0.39383827,0.39383827,0.39383827,24.157922,1042.2351)"/><path d="m11.462,2.5c0,1.6361-1.3263,2.9624-2.9624,2.9624s-2.9624-1.3263-2.9624-2.9624,1.3263-2.9625,2.9624-2.9625,2.9624,1.3263,2.9624,2.9625z" opacity=".25" transform="translate(0,-1036.3622) translate(-16.00003,1.9107285e-4) matrix(0.55697142,0,0,0.55697142,25.615743,1042.9698)"/><path d="m11.462,2.5c0,1.6361-1.3263,2.9624-2.9624,2.9624s-2.9624-1.3263-2.9624-2.9624,1.3263-2.9625,2.9624-2.9625,2.9624,1.3263,2.9624,2.9625z" opacity=".375" transform="translate(0,-1036.3622) translate(-16.00003,1.9107285e-4) matrix(0.39383827,0.39383827,-0.39383827,0.39383827,26.127079,1044.5201)"/><path d="m11.462,2.5c0,1.6361-1.3263,2.9624-2.9624,2.9624s-2.9624-1.3263-2.9624-2.9624,1.3263-2.9625,2.9624-2.9625,2.9624,1.3263,2.9624,2.9625z" opacity=".5" transform="translate(0,-1036.3622) translate(-16.00003,1.9107285e-4) matrix(0,0.55697142,-0.55697142,0,25.3924,1045.9779)"/><path d="m11.462,2.5c0,1.6361-1.3263,2.9624-2.9624,2.9624s-2.9624-1.3263-2.9624-2.9624,1.3263-2.9625,2.9624-2.9625,2.9624,1.3263,2.9624,2.9625z" opacity=".625" transform="translate(0,-1036.3622) translate(-16.00003,1.9107285e-4) matrix(-0.39383827,0.39383827,-0.39383827,-0.39383827,23.842078,1046.4892)"/><path d="m11.462,2.5c0,1.6361-1.3263,2.9624-2.9624,2.9624s-2.9624-1.3263-2.9624-2.9624,1.3263-2.9625,2.9624-2.9625,2.9624,1.3263,2.9624,2.9625z" opacity=".75" transform="translate(0,-1036.3622) translate(-16.00003,1.9107285e-4) matrix(-0.55697142,0,0,-0.55697142,22.384257,1045.7546)"/><path d="m11.462,2.5c0,1.6361-1.3263,2.9624-2.9624,2.9624s-2.9624-1.3263-2.9624-2.9624,1.3263-2.9625,2.9624-2.9625,2.9624,1.3263,2.9624,2.9625z" opacity=".875" transform="translate(0,-1036.3622) translate(-16.00003,1.9107285e-4) matrix(-0.39383827,-0.39383827,0.39383827,-0.39383827,21.872921,1044.2043)"/></g></g></svg>