<svg xmlns="http://www.w3.org/2000/svg" xmlns:svg="http://www.w3.org/2000/svg" xmlns:xlink="http://www.w3.org/1999/xlink" id="svg6313" width="159.97" height="159.97" version="1.1"><defs id="defs6315"><linearGradient id="linearGradient7024"><stop style="stop-color:#feeed4;stop-opacity:.70338983" id="stop7026" offset="0"/><stop style="stop-color:#f3770c;stop-opacity:.247" id="stop7028" offset="1"/></linearGradient><linearGradient id="linearGradient6986"><stop id="stop6990" offset="0" style="stop-color:#fde3bc;stop-opacity:.755"/><stop id="stop6988" offset="1" style="stop-color:#f59506;stop-opacity:.32499999"/></linearGradient><radialGradient id="radialGradient7027" cx="251.354" cy="130.456" r="72.482" fx="251.354" fy="130.456" gradientTransform="matrix(0.3036305,1.040892,-1.0715901,0.31258526,314.82994,-171.95484)" gradientUnits="userSpaceOnUse" xlink:href="#linearGradient7019"/><linearGradient id="linearGradient7019"><stop id="stop7023" offset="0" style="stop-color:#faf4fa;stop-opacity:1"/><stop id="stop7021" offset="1" style="stop-color:#e2c5e3;stop-opacity:.24766356"/></linearGradient><clipPath id="clipPath7489" clipPathUnits="userSpaceOnUse"><path id="path7491" d="m 83.34375,134.3125 c -38.80207,0 -70.4375,31.60418 -70.4375,70.40625 0,38.80207 31.635432,70.4375 70.4375,70.4375 38.80207,0 70.40625,-31.63543 70.40625,-70.4375 0,-38.80207 -31.60418,-70.40625 -70.40625,-70.40625 z m 0,15.96875 c 13.177075,0 25.23367,4.63949 34.625,12.375 l -76.6875,76.65625 c -7.726196,-9.39368 -12.375,-21.42548 -12.375,-34.59375 0,-30.15503 24.282474,-54.4375 54.4375,-54.4375 z m 45.34375,24.28125 c 5.72321,8.62171 9.0625,18.98538 9.0625,30.15625 0,30.15503 -24.25122,54.4375 -54.40625,54.4375 -11.185664,0 -21.558995,-3.35252 -30.1875,-9.09375 l 75.53125,-75.5 z" style="font-size:medium;font-style:normal;font-variant:normal;font-weight:400;font-stretch:normal;text-indent:0;text-align:start;text-decoration:none;line-height:normal;letter-spacing:normal;word-spacing:normal;text-transform:none;direction:ltr;block-progression:tb;writing-mode:lr-tb;text-anchor:start;baseline-shift:baseline;color:#000;fill:#e2c5e3;fill-opacity:.60747663;stroke:#9200a0;stroke-width:1;stroke-opacity:.19158882;marker:none;visibility:visible;display:inline;overflow:visible;enable-background:accumulate;font-family:Sans;-inkscape-font-specification:Sans"/></clipPath><linearGradient id="linearGradient7813" x1="39.795" x2="121.269" y1="170.538" y2="245.034" gradientTransform="matrix(1.0059862,0,0,1.0059862,188.15212,-23.772197)" gradientUnits="userSpaceOnUse" xlink:href="#linearGradient7515"/><linearGradient id="linearGradient7515"><stop style="stop-color:white;stop-opacity:1" id="stop7517" offset="0"/><stop style="stop-color:white;stop-opacity:0" id="stop7519" offset="1"/></linearGradient><filter id="filter7010"><feGaussianBlur id="feGaussianBlur7012" stdDeviation="2.312"/></filter><clipPath id="clipPath7016" clipPathUnits="userSpaceOnUse"><path id="path7018" d="m 35,21.96875 c -5.213222,0 -10.257115,-0.683584 -15.03125,-1.9375 -0.09835,0.368615 -10.6325148,40.051662 0.5,66.9375 C 31.14722,112.75803 65,144.97009 80,144.97009 c 15,0 48.85278,-32.21206 59.53125,-58.00134 11.13251,-26.885838 0.59837,-66.568914 0.5,-66.9375 -4.77414,1.253916 -9.81803,1.9375 -15.03125,1.9375 -18.50499,0 -25,-11.9986572 -45,-11.9986572 -20,0 -26.495014,11.9986572 -45,11.9986572 z" style="color:#000;fill:url(#radialGradient7020);fill-opacity:1;fill-rule:nonzero;stroke:#f59506;stroke-width:.99999994;stroke-linecap:round;stroke-linejoin:round;stroke-miterlimit:4;stroke-opacity:1;stroke-dashoffset:0;marker:none;visibility:visible;display:inline;overflow:visible;enable-background:accumulate"/></clipPath><radialGradient id="radialGradient7020" cx="421.548" cy="628.487" r="62.489" fx="421.548" fy="628.487" gradientTransform="matrix(1.0489715,0,0,0.92378533,-377.7682,-555.45505)" gradientUnits="userSpaceOnUse" xlink:href="#linearGradient6986"/><radialGradient id="radialGradient7022" cx="415.511" cy="640.294" r="62.489" fx="415.511" fy="640.294" gradientTransform="matrix(0.9601722,0.16002896,-0.15186961,0.9112162,-243.2208,-614.96947)" gradientUnits="userSpaceOnUse" xlink:href="#linearGradient7024"/><filter id="filter7034"><feGaussianBlur id="feGaussianBlur7036" stdDeviation="2.312"/></filter></defs><metadata id="metadata6318"/><g id="layer1" transform="translate(-357.1472,-595.23401)"><g id="g7082"><path style="color:#000;fill:none;stroke:#f3770c;stroke-width:1.66692561000000006;marker:none;visibility:visible;display:inline;overflow:visible;enable-background:accumulate;stroke-miterlimit:4;stroke-dasharray:none;stroke-linecap:round" id="path6184" d="M 22.268011,31.152708 A 18,20.75 0 0 1 46.175881,15.229679" transform="matrix(0.70919845,0,0,0.50745763,410.23027,633.37881)"/><g id="g7509"><g id="g7505" transform="matrix(0.85194792,0,0,0.85194792,64.86135,99.4578)"><path style="color:#000;fill:#f3770c;fill-opacity:.89499996;fill-rule:nonzero;stroke:none;stroke-width:6;marker:none;visibility:visible;display:inline;overflow:visible;enable-background:accumulate" id="path7503" d="m 85,117.47009 c 0,3.58985 -2.910149,6.5 -6.5,6.5 -3.589851,0 -6.5,-2.91015 -6.5,-6.5 0,-3.58985 2.910149,-6.5 6.5,-6.5 3.589851,0 6.5,2.91015 6.5,6.5 z" transform="matrix(0.71443765,0,0,0.71443765,379.56384,630.28165)"/><path style="fill:none;stroke:#f3770c;stroke-width:7.04268408;stroke-linecap:round;stroke-linejoin:miter;stroke-opacity:1" id="path7499" d="m 414.1472,653.7041 c -0.50794,-6.68079 1.9151,-13.5326 6.51002,-18.40883 4.59491,-4.87624 11.29082,-7.70169 17.98998,-7.59117 4.36612,0.072 8.70787,1.35613 12.40323,3.68259 3.69537,2.32646 6.73243,5.68982 8.6583,9.6089 1.92586,3.91909 2.73293,8.38241 2.28735,12.72633 -0.44557,4.34392 -2.14413,8.55399 -4.84888,11.98218 -3.09348,3.9209 -7.35198,6.71369 -11.3744,9.67397 -4.02242,2.96027 -8.00039,6.30645 -10.1256,10.82603 -2.12446,4.51798 -2.12446,9.98202 0,14.5"/></g><rect style="color:#000;fill:#f3770c;fill-opacity:0;fill-rule:nonzero;stroke:none;stroke-width:3;marker:none;visibility:visible;display:inline;overflow:visible;enable-background:accumulate" id="rect7080" width="160" height="160" x="0" y="-.03" transform="translate(357.1472,595.23401)"/><path id="path7030" d="m 392.1472,623.20276 c -5.21322,0 -10.25712,-0.68358 -15.03125,-1.9375 -0.0983,0.36861 -10.63251,40.05166 0.5,66.9375 10.67847,25.78928 44.53125,58.00134 59.53125,58.00134 15,0 48.85278,-32.21206 59.53125,-58.00134 11.13251,-26.88584 0.59837,-66.56891 0.5,-66.9375 -4.77414,1.25392 -9.81803,1.9375 -15.03125,1.9375 -18.50499,0 -25,-11.99866 -45,-11.99866 -20,0 -26.49501,11.99866 -45,11.99866 z" style="opacity:.07627119;color:#000;fill:#313e37;fill-opacity:1;fill-rule:nonzero;stroke:none;stroke-width:.99999994000000003;stroke-linecap:round;stroke-linejoin:round;stroke-miterlimit:4;stroke-opacity:1;stroke-dashoffset:0;marker:none;visibility:visible;display:inline;overflow:visible;filter:url(#filter7034);enable-background:accumulate"/><path style="color:#000;fill:url(#radialGradient7022);fill-opacity:1;fill-rule:nonzero;stroke:#f59506;stroke-width:.99999994000000003;stroke-linecap:round;stroke-linejoin:round;stroke-miterlimit:4;stroke-opacity:1;stroke-dashoffset:0;marker:none;visibility:visible;display:inline;overflow:visible;enable-background:accumulate" id="rect6206" d="m 35,21.96875 c -5.213222,0 -10.257115,-0.683584 -15.03125,-1.9375 -0.09835,0.368615 -10.6325148,40.051662 0.5,66.9375 C 31.14722,112.75803 65,144.97009 80,144.97009 c 15,0 48.85278,-32.21206 59.53125,-58.00134 11.13251,-26.885838 0.59837,-66.568914 0.5,-66.9375 -4.77414,1.253916 -9.81803,1.9375 -15.03125,1.9375 -18.50499,0 -25,-11.9986572 -45,-11.9986572 -20,0 -26.495014,11.9986572 -45,11.9986572 z" transform="translate(357.1472,595.23401)"/><path id="path7004" d="m 35,21.96875 c -5.213222,0 -10.257115,-0.683584 -15.03125,-1.9375 -0.09835,0.368615 -10.6325148,40.051662 0.5,66.9375 C 31.14722,112.75803 65,144.97009 80,144.97009 c 15,0 48.85278,-32.21206 59.53125,-58.00134 11.13251,-26.885838 0.59837,-66.568914 0.5,-66.9375 -4.77414,1.253916 -9.81803,1.9375 -15.03125,1.9375 -18.50499,0 -25,-11.9986572 -45,-11.9986572 -20,0 -26.495014,11.9986572 -45,11.9986572 z" clip-path="url(#clipPath7016)" transform="translate(357.1472,595.23401)" style="color:#000;fill:none;fill-opacity:1;fill-rule:nonzero;stroke:#fafaf7;stroke-width:3;stroke-linecap:round;stroke-linejoin:round;stroke-miterlimit:4;stroke-opacity:1;stroke-dashoffset:0;marker:none;visibility:visible;display:inline;overflow:visible;enable-background:accumulate;filter:url(#filter7010)"/></g></g></g></svg>