<svg xmlns="http://www.w3.org/2000/svg" xmlns:svg="http://www.w3.org/2000/svg" xmlns:xlink="http://www.w3.org/1999/xlink" id="svg6313" width="159.97" height="159.97" version="1.1"><defs id="defs6315"><filter id="filter7724" color-interpolation-filters="sRGB"><feGaussianBlur id="feGaussianBlur7726" stdDeviation="2.51"/></filter><radialGradient id="radialGradient7027" cx="251.354" cy="130.456" r="72.482" fx="251.354" fy="130.456" gradientTransform="matrix(0.3036305,1.040892,-1.0715901,0.31258526,314.82994,-171.95484)" gradientUnits="userSpaceOnUse" xlink:href="#linearGradient7019"/><linearGradient id="linearGradient7019"><stop id="stop7023" offset="0" style="stop-color:#faf4fa;stop-opacity:1"/><stop id="stop7021" offset="1" style="stop-color:#e2c5e3;stop-opacity:.24766356"/></linearGradient><clipPath id="clipPath7489" clipPathUnits="userSpaceOnUse"><path id="path7491" d="m 83.34375,134.3125 c -38.80207,0 -70.4375,31.60418 -70.4375,70.40625 0,38.80207 31.635432,70.4375 70.4375,70.4375 38.80207,0 70.40625,-31.63543 70.40625,-70.4375 0,-38.80207 -31.60418,-70.40625 -70.40625,-70.40625 z m 0,15.96875 c 13.177075,0 25.23367,4.63949 34.625,12.375 l -76.6875,76.65625 c -7.726196,-9.39368 -12.375,-21.42548 -12.375,-34.59375 0,-30.15503 24.282474,-54.4375 54.4375,-54.4375 z m 45.34375,24.28125 c 5.72321,8.62171 9.0625,18.98538 9.0625,30.15625 0,30.15503 -24.25122,54.4375 -54.40625,54.4375 -11.185664,0 -21.558995,-3.35252 -30.1875,-9.09375 l 75.53125,-75.5 z" style="font-size:medium;font-style:normal;font-variant:normal;font-weight:400;font-stretch:normal;text-indent:0;text-align:start;text-decoration:none;line-height:normal;letter-spacing:normal;word-spacing:normal;text-transform:none;direction:ltr;block-progression:tb;writing-mode:lr-tb;text-anchor:start;baseline-shift:baseline;color:#000;fill:#e2c5e3;fill-opacity:.60747663;stroke:#9200a0;stroke-width:1;stroke-opacity:.19158882;marker:none;visibility:visible;display:inline;overflow:visible;enable-background:accumulate;font-family:Sans;-inkscape-font-specification:Sans"/></clipPath><filter id="filter7720" color-interpolation-filters="sRGB"><feGaussianBlur id="feGaussianBlur7722" stdDeviation="2.465"/></filter><linearGradient id="linearGradient7813" x1="39.795" x2="121.269" y1="170.538" y2="245.034" gradientTransform="matrix(1.0059862,0,0,1.0059862,188.15212,-23.772197)" gradientUnits="userSpaceOnUse" xlink:href="#linearGradient7515"/><linearGradient id="linearGradient7515"><stop style="stop-color:white;stop-opacity:1" id="stop7517" offset="0"/><stop style="stop-color:white;stop-opacity:0" id="stop7519" offset="1"/></linearGradient><filter id="filter7894" color-interpolation-filters="sRGB"><feGaussianBlur id="feGaussianBlur7896" stdDeviation="2.625"/></filter><clipPath id="clipPath7860" clipPathUnits="userSpaceOnUse"><path id="path7862" d="M 98.999996,87.000001 161.1127,87.046679 205,131 204.95332,193.1127 161,237 98.887305,236.95332 55.000001,193 l 0.04668,-62.1127 z" style="color:#000;fill:#d8001d;fill-opacity:.20560746;fill-rule:nonzero;stroke:#d8001d;stroke-width:1;stroke-opacity:1;marker:none;visibility:visible;display:inline;overflow:visible;enable-background:accumulate"/></clipPath><filter id="filter7854" color-interpolation-filters="sRGB"><feGaussianBlur id="feGaussianBlur7856" stdDeviation="3"/></filter><linearGradient id="linearGradient7872" x1="90.66" x2="160.155" y1="95.328" y2="183.74" gradientUnits="userSpaceOnUse" xlink:href="#linearGradient7866"/><linearGradient id="linearGradient7866"><stop style="stop-color:white;stop-opacity:1" id="stop7868" offset="0"/><stop style="stop-color:white;stop-opacity:0" id="stop7870" offset="1"/></linearGradient></defs><metadata id="metadata6318"/><g id="layer1" transform="translate(-357.1472,-595.23401)"><g id="g6242" transform="matrix(0.99705788,0,0,0.99705788,165.17634,451.18937)"><path id="path7846" d="M 98.999996,87.000001 161.1127,87.046679 205,131 204.95332,193.1127 161,237 98.887305,236.95332 55.000001,193 l 0.04668,-62.1127 z" transform="matrix(1.008889,0,0,1.008889,141.61392,57.295069)" style="color:#000;fill:#d8001d;fill-opacity:.20560746;fill-rule:nonzero;stroke:#d8001d;stroke-width:.99411416;stroke-opacity:.45490196;marker:none;visibility:visible;display:inline;overflow:visible;enable-background:accumulate"/><path style="opacity:.1;color:#000;fill:none;stroke:#400009;stroke-width:2.01242876;stroke-opacity:1;marker:none;visibility:visible;display:inline;overflow:visible;filter:url(#filter7894);enable-background:accumulate" id="path7876" d="M 98.999996,87.000001 161.1127,87.046679 205,131 204.95332,193.1127 161,237 98.887305,236.95332 55.000001,193 l 0.04668,-62.1127 z" transform="matrix(0.99675661,0,0,0.99675661,143.19113,62.747632)"/><path style="color:#000;fill:none;stroke:#fff;stroke-width:3.0199945;stroke-opacity:1;marker:none;visibility:visible;display:inline;overflow:visible;filter:url(#filter7854);enable-background:accumulate" id="path7848" d="M 98.999996,87.000001 161.1127,87.046679 205,131 204.95332,193.1127 161,237 98.887305,236.95332 55.000001,193 l 0.04668,-62.1127 z" clip-path="url(#clipPath7860)" transform="matrix(0.99631056,0,0,0.99631056,143.24907,59.26625)"/><path style="color:#000;fill:none;stroke:url(#linearGradient7872);stroke-width:1.00748312;stroke-opacity:1;marker:none;visibility:visible;display:inline;overflow:visible;enable-background:accumulate" id="path7864" d="M 98.999996,87.000001 161.1127,87.046679 205,131 204.95332,193.1127 161,237 98.887305,236.95332 55.000001,193 l 0.04668,-62.1127 z" transform="matrix(0.99550146,0,0,0.99550146,143.35427,59.463847)"/><g id="g7004"><path style="color:#000;fill:none;stroke:#d8001d;stroke-width:6.01770496;stroke-linecap:round;stroke-linejoin:round;stroke-opacity:1;marker:none;visibility:visible;display:inline;overflow:visible;enable-background:accumulate" id="rect7898" d="m 271.09619,182.28009 c -2.94799,0 -5.77859,2.66996 -5.77859,5.98645 l 0,2.95165 0,2.36964 0,20.8902 -0.72751,0 0,-21.13964 -0.0208,-2.1202 c -0.91648,-2.12693 -2.76745,-3.61681 -5.23811,-3.61681 -3.31649,0 -5.98644,2.66996 -5.98644,5.98645 l 0,16.69137 0,1.99548 0,21.26435 0,0 0,-21.26435 c -0.71858,-0.30313 -2.22589,-0.83145 -3.05558,-0.83145 -3.31649,0 -5.98645,2.66996 -5.98645,5.98644 l 0,12.03526 0,13.83713 c 15.69634,18.04164 43.92829,17.79557 56.93359,-0.20474 l 0,-4.27858 0,-9.35381 0,-31.88614 c 0,-3.31649 -2.66996,-5.98644 -5.98645,-5.98644 -3.31648,0 -5.98644,2.66995 -5.98644,5.98644 l 0,20.47448 -0.72752,0 0,-21.13964 0.0208,-2.96926 0,-1.06328 c 3e-5,-2.92496 -2.47944,-5.27971 -5.4044,-5.27971 -2.92495,0 -5.86172,2.66996 -5.86172,5.98645 l 0,20.26661 -0.72753,0 0,-21.13963 0.0623,-3.04404 0,-2.06939 c 0,-2.94799 -2.58116,-5.32129 -5.52915,-5.32129 z"/><path style="fill:none;stroke:#d8001d;stroke-width:1.00295079px;stroke-linecap:round;stroke-linejoin:miter;stroke-opacity:1" id="path7002" d="m 272.25,251.01517 c 0.0902,0.54106 13.5507,0.86702 21.19703,-7.77984"/></g></g></g></svg>