<svg xmlns="http://www.w3.org/2000/svg" xmlns:svg="http://www.w3.org/2000/svg" xmlns:xlink="http://www.w3.org/1999/xlink" id="svg6313" width="159.97" height="159.97" version="1.1"><defs id="defs6315"><linearGradient id="linearGradient7031"><stop style="stop-color:#cdcbec;stop-opacity:.78475336" id="stop7033" offset="0"/><stop style="stop-color:#3c3591;stop-opacity:.15695067" id="stop7035" offset="1"/></linearGradient><linearGradient id="linearGradient6985"><stop id="stop6987" offset="0" style="stop-color:#cdcbec;stop-opacity:.78475336"/><stop id="stop6989" offset="1" style="stop-color:#3c3591;stop-opacity:.26008969"/></linearGradient><linearGradient id="linearGradient8428"><stop style="stop-color:#cdcbec;stop-opacity:1" id="stop8430" offset="0"/><stop style="stop-color:#3c3591;stop-opacity:1" id="stop8432" offset="1"/></linearGradient><linearGradient id="linearGradient7635"><stop id="stop7639" offset="0" style="stop-color:#f4a7af;stop-opacity:.75847458"/><stop id="stop7637" offset="1" style="stop-color:#e32135;stop-opacity:.243"/></linearGradient><linearGradient id="linearGradient7024"><stop style="stop-color:#feeed4;stop-opacity:.70338983" id="stop7026" offset="0"/><stop style="stop-color:#f3770c;stop-opacity:.247" id="stop7028" offset="1"/></linearGradient><linearGradient id="linearGradient6986"><stop id="stop6990" offset="0" style="stop-color:#fde3bc;stop-opacity:.755"/><stop id="stop6988" offset="1" style="stop-color:#f59506;stop-opacity:.32499999"/></linearGradient><radialGradient id="radialGradient7027" cx="251.354" cy="130.456" r="72.482" fx="251.354" fy="130.456" gradientTransform="matrix(0.3036305,1.040892,-1.0715901,0.31258526,314.82994,-171.95484)" gradientUnits="userSpaceOnUse" xlink:href="#linearGradient7019"/><linearGradient id="linearGradient7019"><stop id="stop7023" offset="0" style="stop-color:#faf4fa;stop-opacity:1"/><stop id="stop7021" offset="1" style="stop-color:#e2c5e3;stop-opacity:.24766356"/></linearGradient><clipPath id="clipPath7489" clipPathUnits="userSpaceOnUse"><path id="path7491" d="m 83.34375,134.3125 c -38.80207,0 -70.4375,31.60418 -70.4375,70.40625 0,38.80207 31.635432,70.4375 70.4375,70.4375 38.80207,0 70.40625,-31.63543 70.40625,-70.4375 0,-38.80207 -31.60418,-70.40625 -70.40625,-70.40625 z m 0,15.96875 c 13.177075,0 25.23367,4.63949 34.625,12.375 l -76.6875,76.65625 c -7.726196,-9.39368 -12.375,-21.42548 -12.375,-34.59375 0,-30.15503 24.282474,-54.4375 54.4375,-54.4375 z m 45.34375,24.28125 c 5.72321,8.62171 9.0625,18.98538 9.0625,30.15625 0,30.15503 -24.25122,54.4375 -54.40625,54.4375 -11.185664,0 -21.558995,-3.35252 -30.1875,-9.09375 l 75.53125,-75.5 z" style="font-size:medium;font-style:normal;font-variant:normal;font-weight:400;font-stretch:normal;text-indent:0;text-align:start;text-decoration:none;line-height:normal;letter-spacing:normal;word-spacing:normal;text-transform:none;direction:ltr;block-progression:tb;writing-mode:lr-tb;text-anchor:start;baseline-shift:baseline;color:#000;fill:#e2c5e3;fill-opacity:.60747663;stroke:#9200a0;stroke-width:1;stroke-opacity:.19158882;marker:none;visibility:visible;display:inline;overflow:visible;enable-background:accumulate;font-family:Sans;-inkscape-font-specification:Sans"/></clipPath><linearGradient id="linearGradient7813" x1="39.795" x2="121.269" y1="170.538" y2="245.034" gradientTransform="matrix(1.0059862,0,0,1.0059862,188.15212,-23.772197)" gradientUnits="userSpaceOnUse" xlink:href="#linearGradient7515"/><linearGradient id="linearGradient7515"><stop style="stop-color:white;stop-opacity:1" id="stop7517" offset="0"/><stop style="stop-color:white;stop-opacity:0" id="stop7519" offset="1"/></linearGradient><clipPath id="clipPath7016" clipPathUnits="userSpaceOnUse"><path id="path7018" d="m 35,21.96875 c -5.213222,0 -10.257115,-0.683584 -15.03125,-1.9375 -0.09835,0.368615 -10.6325148,40.051662 0.5,66.9375 C 31.14722,112.75803 65,144.97009 80,144.97009 c 15,0 48.85278,-32.21206 59.53125,-58.00134 11.13251,-26.885838 0.59837,-66.568914 0.5,-66.9375 -4.77414,1.253916 -9.81803,1.9375 -15.03125,1.9375 -18.50499,0 -25,-11.9986572 -45,-11.9986572 -20,0 -26.495014,11.9986572 -45,11.9986572 z" style="color:#000;fill:url(#radialGradient7020);fill-opacity:1;fill-rule:nonzero;stroke:#f59506;stroke-width:.99999994;stroke-linecap:round;stroke-linejoin:round;stroke-miterlimit:4;stroke-opacity:1;stroke-dashoffset:0;marker:none;visibility:visible;display:inline;overflow:visible;enable-background:accumulate"/></clipPath><radialGradient id="radialGradient7020" cx="421.548" cy="628.487" r="62.489" fx="421.548" fy="628.487" gradientTransform="matrix(1.0489715,0,0,0.92378533,-377.7682,-555.45505)" gradientUnits="userSpaceOnUse" xlink:href="#linearGradient6986"/><radialGradient id="radialGradient7022" cx="415.511" cy="640.294" r="62.489" fx="415.511" fy="640.294" gradientTransform="matrix(0.9601722,0.16002896,-0.15186961,0.9112162,-243.2208,-614.96947)" gradientUnits="userSpaceOnUse" xlink:href="#linearGradient7024"/><radialGradient id="radialGradient7641" cx="414.507" cy="639.114" r="56" fx="414.507" fy="639.114" gradientTransform="matrix(1.0126267,0.84600254,-0.91561748,1.0959527,577.90217,-419.18777)" gradientUnits="userSpaceOnUse" xlink:href="#linearGradient8428"/><filter id="filter8416"><feGaussianBlur id="feGaussianBlur8418" stdDeviation="2.109"/></filter><clipPath id="clipPath8422" clipPathUnits="userSpaceOnUse"><path id="path8424" d="m 380.64722,609.7041 71.49998,0 39.4375,35.5 0.0625,94.5 -111.00002,0 z" style="color:#000;fill:url(#radialGradient8426);fill-opacity:.34902009;fill-rule:nonzero;stroke:#e84556;stroke-width:1;stroke-opacity:1;marker:none;visibility:visible;display:inline;overflow:visible;enable-background:accumulate"/></clipPath><radialGradient id="radialGradient8426" cx="414.507" cy="639.114" r="56" fx="414.507" fy="639.114" gradientTransform="matrix(1.0126267,0.84600254,-0.91561748,1.0959527,577.90217,-419.18777)" gradientUnits="userSpaceOnUse" xlink:href="#linearGradient7635"/><filter id="filter8491"><feGaussianBlur id="feGaussianBlur8493" stdDeviation="2.109"/></filter><radialGradient id="radialGradient6983" cx="458.104" cy="618.865" r="19.5" fx="458.104" fy="618.865" gradientTransform="matrix(1.3287256,0.77630896,-0.74192507,1.2698743,308.46194,-523.10597)" gradientUnits="userSpaceOnUse" xlink:href="#linearGradient7031"/><clipPath id="clipPath6995" clipPathUnits="userSpaceOnUse"><path id="path6997" d="m 452.64719,610.3291 37.84376,34.41269 -37.78125,-0.006 z" style="color:#000;fill:url(#radialGradient6999);fill-opacity:1;fill-rule:nonzero;stroke:#3c3591;stroke-width:1;marker:none;visibility:visible;display:inline;overflow:visible;enable-background:accumulate"/></clipPath><radialGradient id="radialGradient6999" cx="458.104" cy="618.865" r="19.5" fx="458.104" fy="618.865" gradientTransform="matrix(1.3287256,0.77630896,-0.74192507,1.2698743,308.46194,-523.10597)" gradientUnits="userSpaceOnUse" xlink:href="#linearGradient6985"/><filter id="filter7013"><feGaussianBlur id="feGaussianBlur7015" stdDeviation=".632"/></filter><filter id="filter7027"><feGaussianBlur id="feGaussianBlur7029" stdDeviation=".632"/></filter></defs><metadata id="metadata6318"/><g id="layer1" transform="translate(-357.1472,-595.23401)"><g id="g7082"><g id="g8497"><g id="g8579"><rect style="opacity:0;color:#000;fill:#000;fill-opacity:1;fill-rule:nonzero;stroke:none;stroke-width:6;marker:none;visibility:visible;display:inline;overflow:visible;enable-background:accumulate" id="rect8495" width="159.97" height="159.97" x="0" y="0" transform="translate(357.1472,595.23401)"/><path id="path8489" d="m 380.64722,613.7041 71.49998,0 39.4375,35.5 0.0625,94.5 -111.00002,0 z" style="opacity:.07600002;color:#000;fill:#000;fill-opacity:1;fill-rule:nonzero;stroke:none;stroke-width:1;marker:none;visibility:visible;display:inline;overflow:visible;filter:url(#filter8491);enable-background:accumulate"/><path id="path7017" d="m 452.77219,611.5791 37.59376,33.78769 -39.65625,3.369 z" style="opacity:.0886547;color:#000;fill:#000;fill-opacity:1;fill-rule:nonzero;stroke:none;stroke-width:1;marker:none;visibility:visible;display:inline;overflow:visible;filter:url(#filter7027);enable-background:accumulate"/><path style="color:#000;fill:url(#radialGradient7641);fill-opacity:.34902009000000001;fill-rule:nonzero;stroke:#3c3591;stroke-width:1;stroke-opacity:1;marker:none;visibility:visible;display:inline;overflow:visible;enable-background:accumulate" id="rect7633" d="m 380.64722,609.7041 71.49998,0 39.4375,35.5 0.0625,94.5 -111.00002,0 z"/><path id="path8414" d="m 380.64722,609.7041 71.49998,0 39.4375,35.5 0.0625,94.5 -111.00002,0 z" clip-path="url(#clipPath8422)" style="color:#000;fill:none;fill-opacity:.34902009000000001;fill-rule:nonzero;stroke:#fff;stroke-width:6;stroke-opacity:1;marker:none;visibility:visible;display:inline;overflow:visible;enable-background:accumulate;filter:url(#filter8416);opacity:.34322034"/><g id="g6198" transform="translate(2.2499976,0)"><path id="path8434" d="m 60.999996,62.470097 c 0,2.485281 -2.014718,4.5 -4.5,4.5 -2.485281,0 -4.5,-2.014719 -4.5,-4.5 0,-2.485282 2.014719,-4.5 4.5,-4.5 2.485282,0 4.5,2.014718 4.5,4.5 z" transform="matrix(1.3881258,0,0,1.3870968,336.38136,579.13268)" style="color:#000;fill:#3c3591;fill-opacity:1;fill-rule:nonzero;stroke:none;stroke-width:6;marker:none;visibility:visible;display:inline;overflow:visible;enable-background:accumulate"/><path style="color:#000;fill:#3c3591;fill-opacity:1;fill-rule:nonzero;stroke:none;stroke-width:6;marker:none;visibility:visible;display:inline;overflow:visible;enable-background:accumulate" id="path8436" d="m 60.999996,62.470097 c 0,2.485281 -2.014718,4.5 -4.5,4.5 -2.485281,0 -4.5,-2.014719 -4.5,-4.5 0,-2.485282 2.014719,-4.5 4.5,-4.5 2.485282,0 4.5,2.014718 4.5,4.5 z" transform="matrix(1.3881258,0,0,1.3870968,374.55482,579.13268)"/><path style="color:#000;fill:none;stroke:#3c3591;stroke-width:1.38985002;stroke-linecap:round;marker:none;visibility:visible;display:inline;overflow:visible;enable-background:accumulate" id="path8438" d="m 52.602882,60.220097 c 1.24264,-2.152317 3.994797,-2.889755 6.147114,-1.647115 0.684087,0.394958 1.252157,0.963028 1.647114,1.647114" transform="matrix(4.3186135,0,0,4.315412,189.54852,437.1199)"/><path id="path8575" d="m 52.602882,60.220097 c 0.803847,-1.392305 2.289419,-2.25 3.897114,-2.25" transform="matrix(1.8369272,-0.49256889,0.40571347,1.5130191,302.22842,635.19048)" style="color:#000;fill:none;stroke:#3c3591;stroke-width:.57936728;stroke-linecap:round;marker:none;visibility:visible;display:inline;overflow:visible;enable-background:accumulate"/></g><path style="color:#000;fill:url(#radialGradient6983);fill-opacity:1;fill-rule:nonzero;stroke:#3c3591;stroke-width:1;marker:none;visibility:visible;display:inline;overflow:visible;enable-background:accumulate;stroke-opacity:.43850267" id="rect6204" d="m 452.64719,610.3291 37.84376,34.41269 -37.78125,-0.006 z"/><path id="path6991" d="m 452.64719,610.3291 37.84376,34.41269 -37.78125,-0.006 z" clip-path="url(#clipPath6995)" style="color:#000;fill:none;fill-opacity:1;fill-rule:nonzero;stroke:#fafaf7;stroke-width:3;marker:none;visibility:visible;display:inline;overflow:visible;enable-background:accumulate;opacity:.13901345000000001;filter:url(#filter7013)"/></g></g></g></g></svg>