<svg xmlns="http://www.w3.org/2000/svg" xmlns:svg="http://www.w3.org/2000/svg" xmlns:xlink="http://www.w3.org/1999/xlink" id="svg6313" width="159.97" height="159.97" version="1.1"><defs id="defs6315"><filter id="filter7724" color-interpolation-filters="sRGB"><feGaussianBlur id="feGaussianBlur7726" stdDeviation="2.51"/></filter><radialGradient id="radialGradient7027" cx="251.354" cy="130.456" r="72.482" fx="251.354" fy="130.456" gradientTransform="matrix(0.3036305,1.040892,-1.0715901,0.31258526,314.82994,-171.95484)" gradientUnits="userSpaceOnUse" xlink:href="#linearGradient7019"/><linearGradient id="linearGradient7019"><stop id="stop7023" offset="0" style="stop-color:#faf4fa;stop-opacity:1"/><stop id="stop7021" offset="1" style="stop-color:#e2c5e3;stop-opacity:.24766356"/></linearGradient><clipPath id="clipPath7489" clipPathUnits="userSpaceOnUse"><path id="path7491" d="m 83.34375,134.3125 c -38.80207,0 -70.4375,31.60418 -70.4375,70.40625 0,38.80207 31.635432,70.4375 70.4375,70.4375 38.80207,0 70.40625,-31.63543 70.40625,-70.4375 0,-38.80207 -31.60418,-70.40625 -70.40625,-70.40625 z m 0,15.96875 c 13.177075,0 25.23367,4.63949 34.625,12.375 l -76.6875,76.65625 c -7.726196,-9.39368 -12.375,-21.42548 -12.375,-34.59375 0,-30.15503 24.282474,-54.4375 54.4375,-54.4375 z m 45.34375,24.28125 c 5.72321,8.62171 9.0625,18.98538 9.0625,30.15625 0,30.15503 -24.25122,54.4375 -54.40625,54.4375 -11.185664,0 -21.558995,-3.35252 -30.1875,-9.09375 l 75.53125,-75.5 z" style="font-size:medium;font-style:normal;font-variant:normal;font-weight:400;font-stretch:normal;text-indent:0;text-align:start;text-decoration:none;line-height:normal;letter-spacing:normal;word-spacing:normal;text-transform:none;direction:ltr;block-progression:tb;writing-mode:lr-tb;text-anchor:start;baseline-shift:baseline;color:#000;fill:#e2c5e3;fill-opacity:.60747663;stroke:#9200a0;stroke-width:1;stroke-opacity:.19158882;marker:none;visibility:visible;display:inline;overflow:visible;enable-background:accumulate;font-family:Sans;-inkscape-font-specification:Sans"/></clipPath><filter id="filter7720" color-interpolation-filters="sRGB"><feGaussianBlur id="feGaussianBlur7722" stdDeviation="2.465"/></filter><linearGradient id="linearGradient7813" x1="39.795" x2="121.269" y1="170.538" y2="245.034" gradientTransform="matrix(1.0059862,0,0,1.0059862,188.15212,-23.772197)" gradientUnits="userSpaceOnUse" xlink:href="#linearGradient7515"/><linearGradient id="linearGradient7515"><stop style="stop-color:white;stop-opacity:1" id="stop7517" offset="0"/><stop style="stop-color:white;stop-opacity:0" id="stop7519" offset="1"/></linearGradient></defs><metadata id="metadata6318"/><g id="layer1" transform="translate(-357.1472,-595.23401)"><g id="g7791" transform="translate(165.16377,489.03156)"><path id="path7793" d="m 271.99479,111.34432 c -39.03434,0 -70.85916,31.79338 -70.85916,70.82773 0,39.03435 31.82482,70.85914 70.85916,70.85914 39.03435,0 70.82772,-31.82479 70.82772,-70.85914 0,-39.03435 -31.79337,-70.82773 -70.82772,-70.82773 z" clip-path="none" transform="matrix(1.027597,0,0,1.027597,-7.5057934,-1.0278268)" style="font-size:medium;font-style:normal;font-variant:normal;font-weight:400;font-stretch:normal;text-indent:0;text-align:start;text-decoration:none;line-height:normal;letter-spacing:normal;word-spacing:normal;text-transform:none;direction:ltr;block-progression:tb;writing-mode:lr-tb;text-anchor:start;baseline-shift:baseline;opacity:.1;color:#000;fill:none;stroke:#1f1f21;stroke-width:1.94628823;stroke-opacity:1;marker:none;visibility:visible;display:inline;overflow:visible;filter:url(#filter7724);enable-background:accumulate;font-family:Sans;-inkscape-font-specification:Sans"/><g id="g7795" transform="translate(0.00165,0.0126)"><path id="path7797" d="m 271.96866,152.26365 c -20.49238,0 -38.08598,12.3207 -45.74119,29.91149 7.65521,17.59078 25.24881,29.91149 45.74119,29.91149 20.49399,0 38.10443,-12.31851 45.75868,-29.91149 -7.65425,-17.59299 -25.26469,-29.91149 -45.75868,-29.91149 z" style="color:#000;fill:none;stroke:#9200a0;stroke-width:6.00000048;stroke-opacity:1;marker:none;visibility:visible;display:inline;overflow:visible;enable-background:accumulate"/><path id="path7799" d="m 109.60155,203.38182 c 0,15.3561 -12.448577,27.80467 -27.804675,27.80467 -15.356098,0 -27.804674,-12.44857 -27.804674,-27.80467 0,-15.3561 12.448576,-27.80467 27.804674,-27.80467 15.356098,0 27.804675,12.44857 27.804675,27.80467 z" transform="matrix(0.64811934,0,0,0.64811934,218.96326,50.359458)" style="color:#000;fill:#e2c5e3;fill-opacity:1;stroke:#9200a0;stroke-width:3.08585143;stroke-linecap:round;stroke-linejoin:round;stroke-miterlimit:4;stroke-opacity:1;stroke-dasharray:none;stroke-dashoffset:0;marker:none;visibility:visible;display:inline;overflow:visible;enable-background:accumulate"/><path style="color:#000;fill:#9200a0;fill-opacity:1;stroke:none;stroke-width:2;marker:none;visibility:visible;display:inline;overflow:visible;enable-background:accumulate" id="path7801" d="m 109.60155,203.38182 c 0,15.3561 -12.448577,27.80467 -27.804675,27.80467 -15.356098,0 -27.804674,-12.44857 -27.804674,-27.80467 0,-15.3561 12.448576,-27.80467 27.804674,-27.80467 15.356098,0 27.804675,12.44857 27.804675,27.80467 z" transform="matrix(0.45948519,0,0,0.45948519,234.39294,88.724211)"/><path id="path7803" d="m 53.992201,203.38182 c 0,-12.28728 8.065093,-23.11766 19.837087,-26.63865" transform="matrix(0.37790115,0,0,0.37790115,241.06627,105.31691)" style="color:#000;fill:none;stroke:#f6f6f4;stroke-width:5.29238939;stroke-linecap:round;stroke-opacity:1;marker:none;visibility:visible;display:inline;overflow:visible;enable-background:accumulate"/></g><g id="g7805"><path id="path7807" d="m 271.99502,110.20594 c -39.66158,0 -71.99777,32.30425 -71.99777,71.96583 0,39.66158 32.33619,71.99777 71.99777,71.99777 39.66159,0 71.96584,-32.33619 71.96584,-71.99777 0,-39.66158 -32.30425,-71.96583 -71.96584,-71.96583 z m 0,16.32247 c 13.46897,0 25.79263,4.74226 35.39199,12.64912 l -78.38622,78.35428 c -7.89734,-9.60176 -12.64912,-21.90008 -12.64912,-35.36004 0,-30.823 24.82036,-55.64336 55.64335,-55.64336 z m 46.34817,24.81911 c 5.84999,8.81269 9.26325,19.40593 9.26325,30.82425 0,30.823 -24.78842,55.64335 -55.61142,55.64335 -11.43344,0 -22.03655,-3.42678 -30.85619,-9.29518 l 77.20436,-77.17242 z" style="font-size:medium;font-style:normal;font-variant:normal;font-weight:400;font-stretch:normal;text-indent:0;text-align:start;text-decoration:none;line-height:normal;letter-spacing:normal;word-spacing:normal;text-transform:none;direction:ltr;block-progression:tb;writing-mode:lr-tb;text-anchor:start;baseline-shift:baseline;color:#000;fill:url(#radialGradient7027);fill-opacity:1;stroke:#9200a0;stroke-width:1;stroke-opacity:.45327107;marker:none;visibility:visible;display:inline;overflow:visible;enable-background:accumulate;font-family:Sans;-inkscape-font-specification:Sans"/><path style="font-size:medium;font-style:normal;font-variant:normal;font-weight:400;font-stretch:normal;text-indent:0;text-align:start;text-decoration:none;line-height:normal;letter-spacing:normal;word-spacing:normal;text-transform:none;direction:ltr;block-progression:tb;writing-mode:lr-tb;text-anchor:start;baseline-shift:baseline;color:#000;fill:none;stroke:#fff;stroke-width:2.93498683;stroke-opacity:1;marker:none;visibility:visible;display:inline;overflow:visible;filter:url(#filter7720);enable-background:accumulate;font-family:Sans;-inkscape-font-specification:Sans" id="path7809" d="m 83.34375,134.3125 c -38.80207,0 -70.4375,31.60418 -70.4375,70.40625 0,38.80207 31.635432,70.4375 70.4375,70.4375 38.80207,0 70.40625,-31.63543 70.40625,-70.4375 0,-38.80207 -31.60418,-70.40625 -70.40625,-70.40625 z m 0,15.96875 c 13.177075,0 25.23367,4.63949 34.625,12.375 l -76.6875,76.65625 c -7.726196,-9.39368 -12.375,-21.42548 -12.375,-34.59375 0,-30.15503 24.282474,-54.4375 54.4375,-54.4375 z m 45.34375,24.28125 c 5.72321,8.62171 9.0625,18.98538 9.0625,30.15625 0,30.15503 -24.25122,54.4375 -54.40625,54.4375 -11.185664,0 -21.558995,-3.35252 -30.1875,-9.09375 l 75.53125,-75.5 z" clip-path="url(#clipPath7489)" transform="matrix(1.0221512,0,0,1.0221512,186.80511,-27.081748)"/><path id="path7811" d="m 271.99479,111.34432 c -39.03434,0 -70.85916,31.79338 -70.85916,70.82773 0,39.03435 31.82482,70.85914 70.85916,70.85914 39.03435,0 70.82772,-31.82479 70.82772,-70.85914 0,-39.03435 -31.79337,-70.82773 -70.82772,-70.82773 z" clip-path="none" style="font-size:medium;font-style:normal;font-variant:normal;font-weight:400;font-stretch:normal;text-indent:0;text-align:start;text-decoration:none;line-height:normal;letter-spacing:normal;word-spacing:normal;text-transform:none;direction:ltr;block-progression:tb;writing-mode:lr-tb;text-anchor:start;baseline-shift:baseline;color:#000;fill:none;stroke:url(#linearGradient7813);stroke-width:.99999994;stroke-opacity:1;marker:none;visibility:visible;display:inline;overflow:visible;enable-background:accumulate;font-family:Sans;-inkscape-font-specification:Sans"/></g></g></g></svg>